<?xml version="1.0" encoding="UTF-8"?>
<svg id="Layer_1" data-name="Layer 1" xmlns="http://www.w3.org/2000/svg" xmlns:xlink="http://www.w3.org/1999/xlink" viewBox="0 0 566.15 125.43">
  <defs>
    <style>
      .cls-1 {
        fill: #f26e6f;
      }

      .cls-2 {
        fill: url(#linear-gradient);
      }
    </style>
    <linearGradient id="linear-gradient" x1="282.38" y1="69.32" x2="566.15" y2="69.32" gradientUnits="userSpaceOnUse">
      <stop offset="0" stop-color="#fbd0d1"/>
      <stop offset=".51" stop-color="#e38ba6"/>
      <stop offset="1" stop-color="#7c5ba6"/>
    </linearGradient>
  </defs>
  <path class="cls-1" d="M17.28,65.5h18.68l-2.02,5.14h20.08l1.4-9.81H13.23l5.29-38.29-4.67-6.23h120.33l-6.23,44.52h-41.1l-1.4,9.81h41.56l-2.02,14.01h-41.56l-.93,6.69h41.41l-1.87,13.39h-41.41l-.62,4.67h48.41l-1.87,13.23H0l1.87-13.23h46.7l.62-4.67H11.52l1.87-13.39h37.67l.93-6.69h-23.51l-1.71,4.67H7.47l9.81-23.82ZM100.09,48.38l.62-4.51h-54.95l-.62,4.51h54.95ZM47.32,32.5h54.95l.78-4.67h-54.95l-.78,4.67Z"/>
  <path class="cls-1" d="M162.52,81.07l-19.77,39.85h26.46l19.92-39.85h-26.61ZM262.76,80.91h-26.46l8.87,40.01h26.47l-8.88-40.01Z"/>
  <path class="cls-2" d="M308.99,119.83h-26.62l18.99-29.58h26.46l-18.84,29.58ZM422.47,27.99l-69.58,2.65-11.83,7.94h74.1l-2.34,16.66h-61.49l-20.24,12.92h51.84l-.62-6.07h29.58l2.49,23.82h-29.58l-.31-2.96h-16.97l-4.51,32.22c-.52,3.01-1.92,5.48-4.2,7.39-2.28,1.92-4.93,2.88-7.94,2.88h-30.82l13.85-14.48,4.05-28.02h-41.41l2.02-14.79,21.79-13.08h-19.93l2.33-16.19,11.67-6.85-16.81.62,2.33-16.34,124.69-3.11-2.18,14.79ZM412.51,119.83h-26.62l-10.59-29.58h26.62l10.59,29.58ZM472.13,122.79l-44.83,2.65,2.18-14.48,44.68-2.96-2.02,14.79ZM437.73,51.8l20.08-31.6-3.27-3.89h32.53l-22.73,35.49h17.75l-22.73,35.49h17.75l-2.02,14.79h-44.37l2.02-14.79,13.23-20.7h-10.27l2.02-14.79ZM513.85,78.42l-15.1,44.36h-23.66l15.1-44.36h23.66ZM556.5,48.85l5.14,26.62h-20.7l-.62-2.8-58.53,2.8,2.02-14.79,15.1-23.66h-14.79l2.18-14.79h24.91l.47-2.96-4.98-5.92h35.49l-1.4,8.87h25.37l-2.18,14.79h-35.49l-14.17,22.1,23.19-1.09-1.71-9.18h20.7ZM543.42,78.42l-3.74,26.62h11.83l6.69-5.92-3.27,23.66h-41.41l6.23-44.36h23.66Z"/>
  <path class="cls-1" d="M250.33,40.38c1.79-3.49,3.06-6.38,3.71-8.97h-64.28l-8.72,27.55h22.88l2.96-20.08h29.58l-2.81,20.08h40.63l-2.18,14.79h-40.62l-5.61,40.63c-.52,3.01-1.92,5.48-4.2,7.39-2.29,1.93-4.93,2.88-7.94,2.88h-30.82l13.85-14.47,5.14-36.43h-50.75l2.18-14.79,13.08-36.58-3.58-5.76h86.89c-.85-1.02-1.82-2.1-2.92-3.24-2.15-2.29-4.56-4.5-6.97-6.53.39-.32.65-.07,1.04.14,7.04,3.91,16.25,10.69,24.59,7.1,6.66-2.86,11.16-9.26,16.25-14.09-2.51,4.82-6.69,10.75-8.25,16.62-.52,1.92-.75,3.83-.56,5.7.24,2.46,1.36,4.84,2.92,7.11h0c3.08,4.47,7.87,8.48,11.11,11.67.33.26.65.46.45.91-5.28-3.06-11.74-7.43-17.87-8.41-10.31-1.7-17.29,8.61-23.74,14.94,1.49-2.74,3.12-5.35,4.56-8.16Z"/>
</svg>