<?xml version="1.0" encoding="UTF-8"?>
<svg id="Layer_1" data-name="Layer 1" xmlns="http://www.w3.org/2000/svg" xmlns:xlink="http://www.w3.org/1999/xlink" viewBox="0 0 684.12 153.78">
  <defs>
    <style>
      .cls-1 {
        fill: #f26e6f;
      }

      .cls-2 {
        fill: url(#linear-gradient);
      }
    </style>
    <linearGradient id="linear-gradient" x1="459.66" y1="62.09" x2="684.12" y2="62.09" gradientUnits="userSpaceOnUse">
      <stop offset="0" stop-color="#fbd0d1"/>
      <stop offset=".51" stop-color="#e38ba6"/>
      <stop offset="1" stop-color="#7c5ba6"/>
    </linearGradient>
  </defs>
  <g>
    <path class="cls-1" d="M171.86,59.34c-2.21-5.5-5.24-10.27-9.06-14.23-3.83-4.03-8.46-7.18-13.83-9.46-5.37-2.35-11.28-3.49-17.72-3.49s-12.62,1.28-18.06,3.83c-5.37,2.48-9.93,6.24-13.63,11.28l-1.68-12.22h-16.45v118.74h20.27v-46.72c3.29,4.36,7.52,7.85,12.75,10.47,5.24,2.62,11.08,3.89,17.45,3.89s12.15-1.14,17.39-3.42c5.24-2.28,9.8-5.44,13.63-9.46,3.89-4.03,6.85-8.73,8.99-14.16,2.15-5.37,3.15-11.21,3.15-17.45s-1.07-12.15-3.22-17.59ZM154.41,87.46c-1.41,3.22-3.29,6.04-5.77,8.39-2.48,2.35-5.3,4.16-8.59,5.44-3.36,1.28-6.85,1.88-10.47,1.88s-7.18-.6-10.4-1.88c-3.22-1.28-6.11-3.09-8.52-5.44-2.48-2.35-4.43-5.17-5.77-8.39-1.41-3.22-2.15-6.78-2.15-10.54,0-3.96.74-7.52,2.15-10.74,1.34-3.22,3.29-6.04,5.77-8.39,2.42-2.35,5.3-4.16,8.52-5.44,3.22-1.28,6.71-1.95,10.4-1.95s7.12.67,10.47,1.95c3.29,1.28,6.11,3.09,8.59,5.44,2.48,2.35,4.36,5.17,5.77,8.39,1.41,3.22,2.08,6.78,2.08,10.74s-.67,7.32-2.08,10.54Z"/>
    <path class="cls-1" d="M264.12,35.04l-2.01,13.56c-3.76-5.37-8.59-9.46-14.36-12.22-5.84-2.82-12.42-4.23-19.8-4.23-6.78,0-12.95,1.21-18.53,3.56-5.5,2.35-10.2,5.5-14.03,9.53-3.89,4.03-6.85,8.73-8.93,14.16-2.01,5.44-3.09,11.28-3.09,17.52s1.07,12.08,3.22,17.45c2.08,5.44,5.1,10.14,8.93,14.16,3.89,4.03,8.46,7.18,13.76,9.46,5.3,2.28,11.14,3.42,17.52,3.42,6.98,0,13.36-1.34,19-4.16,5.64-2.82,10.2-6.51,13.63-11.21l1.01,12.75h18.59V35.04h-14.9ZM235.73,88c-10.61-1.75-17.79,8.86-24.43,15.37,1.54-2.82,3.22-5.5,4.7-8.39,6.38-12.42,6.24-17.52-3.62-27.79-2.22-2.35-4.7-4.63-7.18-6.71.4-.34.67-.07,1.07.13,7.25,4.03,16.71,11.01,25.31,7.32,6.85-2.95,11.48-9.53,16.71-14.5-3.42,6.58-9.87,15.17-9.06,22.96.74,7.52,9.4,14.36,14.43,19.33.34.27.67.47.47.94-5.44-3.15-12.08-7.65-18.39-8.66Z"/>
    <path class="cls-1" d="M343.68,33.43c-2.62-.27-5.24-.4-7.79-.4-3.02,0-6.04.34-8.99,1.07-2.95.74-5.71,1.75-8.19,3.02-2.48,1.28-4.77,2.75-6.78,4.43-2.01,1.68-3.69,3.56-5.03,5.5l-2.01-12.02h-16.04v83.77h20.27v-36.38c0-4.36.6-8.46,1.88-12.22,1.28-3.83,3.15-7.05,5.64-9.8,2.42-2.75,5.44-4.9,8.93-6.51,3.56-1.68,7.45-2.48,11.81-2.48,5.03,0,9.6.81,13.76,2.35v-18.93c-2.35-.67-4.83-1.14-7.45-1.41Z"/>
    <path class="cls-1" d="M418.11,62.49l27.99-27.45h-22.96l-44.91,41.35V0h-20.27v118.81h20.27v-17.32l23.63-23.22,27.45,40.54h19.13l-30.34-56.32Z"/>
  </g>
  <path class="cls-1" d="M74.57,94.51c0,8.79-3.22,15.71-9.6,20.54-6.31,4.7-14.9,7.12-25.51,7.12s-19.73-2.35-26.65-7.05C5.84,110.42,1.54,103.57.07,94.84l-.07-.6,20.47-5.3.13.67c.74,3.76,2.01,6.71,3.76,8.79,1.74,2.15,3.89,3.62,6.51,4.5,2.62.94,5.5,1.41,8.59,1.41,4.7,0,8.19-.81,10.4-2.42,2.15-1.61,3.22-3.56,3.22-5.84s-1.01-4.09-3.02-5.3c-2.15-1.34-5.64-2.48-10.4-3.36l-4.63-.81c-5.71-1.07-11.08-2.62-15.84-4.56-4.77-1.95-8.73-4.77-11.68-8.26-2.95-3.49-4.43-8.12-4.43-13.69,0-8.32,3.09-14.83,9.2-19.26,6.04-4.43,14.1-6.71,23.9-6.71,9.26,0,17.05,2.15,23.22,6.24,6.18,4.16,10.27,9.67,12.22,16.44l.13.6-.6.2-20.07,6.18-.13-.67c-.87-4.03-2.55-6.91-5.1-8.52-2.62-1.68-5.84-2.55-9.67-2.55s-6.78.67-8.73,1.95c-1.95,1.28-2.82,2.95-2.82,5.17,0,2.42.94,4.09,2.95,5.3,2.15,1.21,5.03,2.15,8.73,2.82l4.63.81c6.18,1.07,11.88,2.62,16.92,4.43,5.1,1.81,9.2,4.5,12.15,7.92,3.02,3.49,4.56,8.26,4.56,14.1Z"/>
  <path class="cls-2" d="M681.97,5.37c-9.06,0-16.65,1.41-22.75,4.09-6.04,2.75-11.14,6.38-15.24,10.87-4.03,4.56-7.38,9.67-9.93,15.44-2.55,5.77-4.83,11.61-6.78,17.65-1.95,6.04-3.83,11.95-5.64,17.72-1.75,5.71-4.03,10.87-6.71,15.37-2.69,4.56-5.97,8.19-9.93,10.87-3.96,2.75-9.06,4.09-15.3,4.09-3.83,0-7.65-.27-11.61-.94v18.73c2.28.34,4.56.6,6.98.81,2.42.27,4.97.4,7.58.4,8.39,0,15.44-1.41,21.21-4.16,5.77-2.68,10.67-6.38,14.63-10.87,4.03-4.5,7.38-9.67,10.07-15.37,2.69-5.77,5.1-11.68,7.25-17.72,2.08-6.04,4.16-11.88,6.11-17.65,1.95-5.77,4.23-10.87,6.85-15.44,2.62-4.5,5.77-8.12,9.46-10.87,3.69-2.69,8.32-4.09,13.89-4.09h2.01V5.37h-2.15ZM575.05,38.8c-3.09-7.18-7.38-13.49-12.89-18.79-5.44-5.3-11.81-9.46-19.06-12.55-7.25-3.02-15.04-4.56-23.29-4.56s-16.04,1.54-23.36,4.56c-7.32,3.09-13.69,7.25-19.13,12.55-5.37,5.3-9.67,11.61-12.89,18.79-3.15,7.18-4.77,14.9-4.77,23.22s1.61,15.77,4.77,23.02c3.22,7.18,7.52,13.49,12.89,18.79,5.44,5.37,11.81,9.67,19.13,12.75,7.32,3.15,15.1,4.7,23.36,4.7s16.04-1.54,23.29-4.7c7.25-3.09,13.63-7.38,19.06-12.75,5.5-5.3,9.8-11.61,12.89-18.79,3.15-7.25,4.7-14.9,4.7-23.02s-1.54-16.04-4.7-23.22ZM556.25,77.33c-2.08,4.77-4.97,8.93-8.59,12.49-3.62,3.56-7.79,6.38-12.62,8.46-4.77,2.08-9.87,3.09-15.24,3.09s-10.61-1.01-15.44-3.09c-4.77-2.08-8.99-4.9-12.55-8.46-3.56-3.56-6.38-7.72-8.52-12.49-2.15-4.77-3.15-9.87-3.15-15.3s1.01-10.47,3.15-15.3c2.15-4.77,4.97-8.93,8.52-12.42,3.56-3.56,7.79-6.31,12.55-8.39,4.83-2.08,9.93-3.09,15.44-3.09s10.47,1.01,15.24,3.09c4.83,2.08,8.99,4.83,12.62,8.39,3.62,3.49,6.51,7.65,8.59,12.42,2.01,4.83,3.09,9.93,3.09,15.3s-1.07,10.54-3.09,15.3Z"/>
</svg>