<?xml version="1.0" encoding="UTF-8"?>
<svg id="Layer_1" data-name="Layer 1" xmlns="http://www.w3.org/2000/svg" xmlns:xlink="http://www.w3.org/1999/xlink" viewBox="0 0 793.14 793.14">
  <defs>
    <style>
      .cls-1 {
        fill: #fff;
      }

      .cls-2 {
        fill: url(#linear-gradient);
      }
    </style>
    <linearGradient id="linear-gradient" x1="77.51" y1="790.58" x2="715.63" y2="2.57" gradientUnits="userSpaceOnUse">
      <stop offset="0" stop-color="#fbd0d1"/>
      <stop offset=".51" stop-color="#e38ba6"/>
      <stop offset="1" stop-color="#7c5ba6"/>
    </linearGradient>
  </defs>
  <rect class="cls-2" width="793.14" height="793.14" rx="124.57" ry="124.57"/>
  <g>
    <path class="cls-1" d="M525.49,197.9c-30.82,29.34-64.02,55.36-102.75,72-66.26,28.47-136.66,6.61-202.34-26.16,76.78-87.45,206.01-106.85,305.09-45.84Z"/>
    <path class="cls-1" d="M572.67,548.57c-76.86,87.49-206.25,106.81-305.34,45.6,56.69-53.56,120.93-95.68,200.29-82.57,34.73,5.74,70.29,19.72,105.05,36.97Z"/>
    <path class="cls-1" d="M453.33,439.34c-13.51-7.89-30.02-18.97-45.67-21.55-26.24-4.33-44.09,21.98-60.61,38.17,3.67-7,7.97-13.71,11.58-20.75,15.86-30.91,15.48-43.66-8.96-69.15-5.57-5.81-11.72-11.42-17.87-16.57.93-.83,1.73-.18,2.59.29,18.09,9.91,41.64,27.28,63,18.11,16.93-7.27,28.51-23.65,41.45-36.05-8.48,16.47-24.43,37.82-22.53,57.18,1.83,18.71,23.35,35.64,35.98,47.95.7.69,1.55,1.26,1.03,2.39Z"/>
    <path class="cls-1" d="M162.71,397.06c-.29-23.23,4.03-46.43,11.52-68.38,1.19-3.47,2.2-7.32,3.87-10.59.05-.09.06-.17.1-.26.22-.54.45-1.1.67-1.64.41-1.02.83-2.05,1.26-3.05.09-.21.18-.43.27-.64.2-.49.4-.95.61-1.41.41-.96.83-1.92,1.26-2.87.17-.42.36-.82.55-1.2.56-1.25,1.13-2.48,1.74-3.73.71-1.51,1.47-3.02,2.22-4.52.47-.9.93-1.81,1.41-2.7.47-.92.96-1.83,1.44-2.76.62-1.14,1.25-2.25,1.89-3.38.06-.16.16-.32.26-.47.46-.79.91-1.58,1.38-2.37.09-.14.16-.3.25-.45.22-.38.46-.77.69-1.16.15-.27.31-.55.47-.8.1-.17.19-.31.29-.47.46-.79.94-1.56,1.42-2.33.05-.06.08-.15.15-.22.15-.27.31-.55.49-.81,1.54-2.48,3.14-4.94,4.81-7.37,41.98,45.12,78.15,95.76,83.04,150.11,4.57,50.78-14.38,103.1-39.79,153.25-7.93,15.64-16.01,31.09-25.06,46.14-8.95,14.88-18.53,29.39-28.69,43.48-9.15,12.68-18.77,25.01-28.85,36.96,3.49-6.99,6.38-13.89,8.84-21.29,2.56-7.73,4.75-15.57,6.64-23.49,2.48-10.37,4.44-20.86,5.93-31.42,1.83-12.9,2.97-25.89,3.49-38.9.61-15.31.35-30.65-.7-45.94-.92-13.46-1.77-26.96-4.06-40.27-2.24-13.01-5.5-25.82-8.72-38.62-4.6-18.26-9.18-36.65-10.61-55.49-.28-3.63-.43-7.27-.48-10.91Z"/>
    <path class="cls-1" d="M630.72,399.1c.47,23.22-3.65,46.47-10.97,68.47-1.16,3.48-2.15,7.33-3.79,10.62-.04.09-.05.17-.1.26-.22.54-.44,1.1-.66,1.64-.4,1.02-.82,2.06-1.23,3.06-.09.22-.18.43-.27.65-.2.49-.4.95-.6,1.42-.4.96-.82,1.93-1.24,2.88-.17.42-.35.83-.54,1.2-.55,1.26-1.11,2.49-1.71,3.75-.7,1.52-1.45,3.04-2.18,4.54-.46.91-.92,1.81-1.39,2.71-.46.93-.94,1.84-1.42,2.78-.61,1.15-1.23,2.26-1.86,3.39-.06.16-.16.32-.25.48-.45.79-.9,1.59-1.36,2.38-.09.14-.16.31-.24.45-.22.39-.46.77-.68,1.17-.14.27-.31.55-.47.8-.1.17-.19.31-.29.48-.46.79-.93,1.57-1.4,2.34-.04.06-.08.15-.14.22-.14.27-.31.55-.48.82-1.52,2.5-3.1,4.97-4.75,7.41-42.35-44.78-78.92-95.13-84.24-149.44-4.98-50.74,13.54-103.21,38.56-153.56,7.8-15.7,15.76-31.22,24.68-46.34,8.83-14.95,18.29-29.54,28.34-43.71,9.04-12.75,18.57-25.16,28.55-37.19-3.43,7.02-6.27,13.94-8.66,21.36s-4.62,15.61-6.45,23.54c-2.39,10.39-4.27,20.9-5.68,31.46-1.73,12.91-2.76,25.91-3.17,38.93-.48,15.32-.1,30.66,1.07,45.93,1.03,13.45,1.99,26.95,4.39,40.24,2.35,12.99,5.71,25.77,9.03,38.54,4.74,18.22,9.47,36.58,11.05,55.4.31,3.63.49,7.27.57,10.9Z"/>
  </g>
</svg>