<?xml version="1.0" encoding="UTF-8"?>
<svg id="Layer_1" data-name="Layer 1" xmlns="http://www.w3.org/2000/svg" xmlns:xlink="http://www.w3.org/1999/xlink" viewBox="0 0 553.79 725.53">
  <defs>
    <style>
      .cls-1 {
        fill: url(#linear-gradient);
      }
    </style>
    <linearGradient id="linear-gradient" x1="0" y1="362.77" x2="553.79" y2="362.77" gradientUnits="userSpaceOnUse">
      <stop offset="0" stop-color="#fbd0d1"/>
      <stop offset=".51" stop-color="#e38ba6"/>
      <stop offset="1" stop-color="#7c5ba6"/>
    </linearGradient>
  </defs>
  <path class="cls-1" d="M429.33,127.86c-36.44,34.69-75.7,65.45-121.49,85.13-78.34,33.66-161.58,7.82-239.24-30.94,90.78-103.4,243.58-126.33,360.73-54.2ZM360.91,498.77c-93.84-15.5-169.79,34.3-236.82,97.63,117.16,72.37,270.15,49.53,361.03-53.92-41.09-20.39-83.13-36.93-124.2-43.71ZM342.79,410.5c-14.93-14.55-40.37-34.57-42.54-56.69-2.24-22.89,16.62-48.13,26.64-67.6-15.3,14.67-28.99,34.03-49,42.62-25.26,10.85-53.1-9.69-74.49-21.41-1.02-.56-1.96-1.32-3.06-.34,7.27,6.1,14.53,12.72,21.13,19.6,28.9,30.14,29.34,45.21,10.59,81.76-4.27,8.33-9.35,16.27-13.7,24.54,19.53-19.14,40.63-50.25,71.66-45.13,18.5,3.05,38.02,16.15,54,25.48.61-1.34-.39-2.02-1.22-2.83ZM.95,376.24c1.69,22.27,7.11,44.02,12.54,65.61,3.81,15.13,7.66,30.27,10.31,45.66,2.71,15.74,3.72,31.7,4.81,47.62,1.23,18.07,1.54,36.22.82,54.32-.61,15.39-1.96,30.75-4.12,46-1.77,12.48-4.09,24.89-7.02,37.15-2.24,9.36-4.83,18.64-7.85,27.77-2.9,8.76-6.32,16.91-10.45,25.18,11.91-14.13,23.29-28.71,34.11-43.7,12.02-16.65,23.34-33.81,33.92-51.4,10.7-17.79,20.25-36.06,29.62-54.55,30.05-59.29,52.45-121.15,47.05-181.19-5.78-64.26-48.54-124.14-98.18-177.49-1.98,2.87-3.87,5.78-5.69,8.72-.21.32-.41.64-.58.96-.08.08-.12.19-.17.26-.57.91-1.13,1.83-1.68,2.76-.12.19-.23.36-.34.56-.19.3-.39.62-.56.94-.27.47-.56.92-.82,1.37-.1.17-.18.36-.29.53-.55.93-1.09,1.87-1.63,2.8-.11.18-.23.37-.3.56-.75,1.33-1.5,2.64-2.23,4-.57,1.1-1.15,2.18-1.7,3.27-.57,1.06-1.12,2.13-1.67,3.19-.89,1.77-1.78,3.55-2.62,5.34-.71,1.48-1.39,2.93-2.05,4.41-.23.44-.44.92-.65,1.42-.51,1.12-1.01,2.26-1.49,3.4-.25.55-.49,1.09-.73,1.67-.11.25-.22.51-.32.76-.5,1.19-1,2.4-1.48,3.61-.26.64-.53,1.3-.79,1.94-.05.11-.07.2-.12.31-1.97,3.87-3.18,8.41-4.58,12.52C5.15,308.44.05,335.88.39,363.35c.05,4.3.24,8.6.57,12.89ZM538.54,0,553.08,352.86c-1.87-22.25-7.46-43.96-13.07-65.5-3.93-15.1-7.91-30.21-10.68-45.57-2.84-15.71-3.97-31.67-5.19-47.58-1.38-18.06-1.83-36.2-1.26-54.31.49-15.39,1.71-30.76,3.75-46.03,1.67-12.49,3.89-24.92,6.72-37.2,2.16-9.38,4.68-18.68,7.63-27.84,2.83-8.78,6.19-16.96,10.24-25.26-11.8,14.23-23.06,28.9-33.75,43.97-11.88,16.75-23.06,33.99-33.51,51.68-10.55,17.87-19.96,36.22-29.18,54.79-29.57,59.53-51.47,121.57-45.59,181.57,6.3,64.21,49.54,123.75,99.61,176.69,1.95-2.89,3.82-5.81,5.62-8.76.21-.32.4-.65.57-.97.07-.08.12-.19.17-.27.56-.91,1.12-1.84,1.66-2.77.12-.19.22-.36.34-.56.19-.3.38-.63.55-.94.27-.47.55-.92.81-1.38.1-.17.18-.36.29-.53.54-.93,1.07-1.88,1.6-2.81.11-.18.22-.37.3-.56.74-1.34,1.48-2.65,2.2-4.01.56-1.1,1.14-2.19,1.68-3.28.56-1.06,1.1-2.13,1.65-3.21.87-1.77,1.75-3.57,2.58-5.36.7-1.49,1.37-2.94,2.02-4.43.22-.45.44-.92.64-1.42.5-1.13.99-2.27,1.47-3.41.24-.55.48-1.09.71-1.68.11-.25.21-.51.32-.76.49-1.19.98-2.41,1.45-3.62.25-.64.52-1.31.78-1.94.05-.11.06-.2.12-.31,1.94-3.89,3.11-8.44,4.48-12.56,8.65-26.02,13.53-53.5,12.97-80.96-.09-4.3-.31-8.6-.67-12.89Z"/>
</svg>