<?xml version="1.0" encoding="UTF-8"?>
<svg id="Layer_1" data-name="Layer 1" xmlns="http://www.w3.org/2000/svg" xmlns:xlink="http://www.w3.org/1999/xlink" viewBox="0 0 2422.15 725.53">
  <defs>
    <style>
      .cls-1 {
        fill: url(#linear-gradient-2);
      }

      .cls-2 {
        fill: #f26e6f;
      }

      .cls-3 {
        fill: url(#linear-gradient);
      }
    </style>
    <linearGradient id="linear-gradient" x1="1861.51" y1="322.63" x2="2422.15" y2="322.63" gradientUnits="userSpaceOnUse">
      <stop offset="0" stop-color="#fbd0d1"/>
      <stop offset=".51" stop-color="#e38ba6"/>
      <stop offset="1" stop-color="#7c5ba6"/>
    </linearGradient>
    <linearGradient id="linear-gradient-2" x1="0" y1="362.77" x2="553.79" y2="362.77" xlink:href="#linear-gradient"/>
  </defs>
  <g>
    <g>
      <path class="cls-2" d="M1142.66,315.75c-5.53-13.75-13.08-25.65-22.63-35.54-9.56-10.06-21.12-17.94-34.54-23.64-13.41-5.87-28.17-8.72-44.26-8.72s-31.52,3.19-45.1,9.56c-13.41,6.2-24.81,15.59-34.03,28.17l-4.19-30.51h-41.08v296.58h50.63v-116.69c8.22,10.9,18.78,19.62,31.85,26.16,13.08,6.54,27.66,9.72,43.59,9.72s30.35-2.85,43.42-8.55c13.08-5.7,24.48-13.58,34.03-23.64,9.72-10.06,17.1-21.8,22.47-35.38,5.37-13.41,7.88-28,7.88-43.59s-2.68-30.35-8.05-43.93ZM1099.07,386c-3.52,8.05-8.21,15.09-14.42,20.96-6.2,5.87-13.25,10.39-21.46,13.58-8.38,3.19-17.1,4.69-26.15,4.69s-17.94-1.51-25.99-4.69c-8.05-3.19-15.26-7.71-21.29-13.58-6.2-5.87-11.06-12.91-14.42-20.96-3.52-8.05-5.37-16.93-5.37-26.32,0-9.89,1.84-18.78,5.37-26.82,3.35-8.05,8.21-15.09,14.42-20.96,6.04-5.87,13.25-10.39,21.29-13.58,8.05-3.19,16.77-4.86,25.99-4.86s17.77,1.68,26.15,4.86c8.21,3.19,15.26,7.71,21.46,13.58,6.2,5.87,10.9,12.91,14.42,20.96,3.52,8.05,5.2,16.93,5.2,26.82s-1.68,18.27-5.2,26.32Z"/>
      <path class="cls-2" d="M1373.1,255.06l-5.03,33.87c-9.39-13.41-21.46-23.64-35.88-30.51-14.59-7.04-31.02-10.56-49.46-10.56-16.93,0-32.36,3.02-46.27,8.89-13.75,5.87-25.48,13.75-35.04,23.81-9.72,10.06-17.1,21.8-22.3,35.38-5.03,13.58-7.71,28.17-7.71,43.76s2.68,30.18,8.05,43.59c5.2,13.58,12.74,25.32,22.3,35.38,9.72,10.06,21.12,17.94,34.37,23.64,13.25,5.7,27.83,8.55,43.76,8.55,17.44,0,33.36-3.35,47.45-10.39,14.08-7.04,25.48-16.26,34.03-28l2.51,31.85h46.44v-209.23h-37.22ZM1302.18,387.34c-26.49-4.36-44.43,22.13-61.03,38.39,3.86-7.04,8.05-13.75,11.74-20.96,15.93-31.02,15.59-43.76-9.05-69.41-5.53-5.87-11.74-11.57-17.94-16.77,1.01-.84,1.68-.17,2.68.33,18.11,10.06,41.75,27.5,63.21,18.27,17.1-7.38,28.67-23.81,41.75-36.21-8.55,16.43-24.64,37.89-22.63,57.34,1.84,18.78,23.47,35.88,36.05,48.28.84.67,1.68,1.17,1.17,2.35-13.58-7.88-30.18-19.11-45.94-21.63Z"/>
      <path class="cls-2" d="M1571.81,251.04c-6.54-.67-13.08-1.01-19.45-1.01-7.54,0-15.09.84-22.47,2.68-7.38,1.84-14.25,4.36-20.45,7.54-6.2,3.19-11.9,6.87-16.93,11.07-5.03,4.19-9.22,8.89-12.57,13.75l-5.03-30.01h-40.07v209.23h50.63v-90.87c0-10.9,1.51-21.12,4.69-30.51,3.19-9.56,7.88-17.6,14.08-24.48,6.04-6.87,13.58-12.24,22.3-16.26,8.89-4.19,18.61-6.2,29.51-6.2,12.57,0,23.97,2.01,34.37,5.87v-47.28c-5.87-1.68-12.07-2.85-18.61-3.52Z"/>
      <path class="cls-2" d="M1757.72,323.63l69.91-68.57h-57.34l-112.16,103.28v-190.79h-50.63v296.75h50.63v-43.25l59.02-58.01,68.57,101.26h47.78l-75.78-140.66Z"/>
    </g>
    <path class="cls-2" d="M899.66,403.61c0,21.96-8.05,39.23-23.97,51.3-15.76,11.74-37.22,17.77-63.71,17.77s-49.29-5.87-66.56-17.6c-17.44-11.74-28.17-28.84-31.85-50.63l-.17-1.51,51.13-13.24.34,1.68c1.84,9.39,5.03,16.77,9.39,21.96,4.36,5.37,9.72,9.05,16.26,11.23,6.54,2.35,13.75,3.52,21.46,3.52,11.74,0,20.45-2.01,25.99-6.04,5.37-4.02,8.05-8.89,8.05-14.59s-2.52-10.23-7.54-13.25c-5.37-3.35-14.08-6.2-25.99-8.38l-11.57-2.01c-14.25-2.68-27.66-6.54-39.57-11.4-11.9-4.86-21.8-11.9-29.17-20.62-7.38-8.72-11.07-20.29-11.07-34.2,0-20.79,7.71-37.05,22.97-48.12,15.09-11.06,35.21-16.77,59.69-16.77,23.14,0,42.59,5.37,58.01,15.59,15.42,10.39,25.65,24.14,30.51,41.07l.34,1.51-1.51.5-50.13,15.43-.34-1.68c-2.18-10.06-6.37-17.27-12.74-21.29-6.54-4.19-14.59-6.37-24.14-6.37s-16.93,1.68-21.8,4.86c-4.86,3.19-7.04,7.38-7.04,12.91,0,6.04,2.35,10.23,7.38,13.24,5.37,3.02,12.57,5.37,21.8,7.04l11.57,2.01c15.42,2.68,29.68,6.54,42.25,11.07,12.74,4.53,22.97,11.23,30.35,19.78,7.54,8.72,11.4,20.62,11.4,35.21Z"/>
    <path class="cls-3" d="M2416.79,180.96c-22.63,0-41.58,3.52-56.84,10.23-15.09,6.87-27.83,15.93-38.06,27.16-10.06,11.4-18.44,24.14-24.81,38.56-6.37,14.42-12.07,29.01-16.93,44.09-4.86,15.09-9.56,29.84-14.08,44.26-4.36,14.25-10.06,27.16-16.77,38.39-6.71,11.4-14.92,20.45-24.81,27.16-9.89,6.87-22.63,10.23-38.22,10.23-9.56,0-19.11-.67-29.01-2.35v46.78c5.7.84,11.4,1.51,17.44,2.01,6.04.67,12.41,1.01,18.95,1.01,20.96,0,38.56-3.52,52.98-10.39,14.42-6.71,26.66-15.93,36.55-27.16,10.06-11.23,18.44-24.14,25.15-38.39,6.71-14.42,12.74-29.17,18.11-44.26,5.2-15.09,10.39-29.67,15.26-44.09,4.86-14.42,10.56-27.16,17.1-38.56,6.54-11.23,14.42-20.29,23.64-27.16,9.22-6.71,20.79-10.23,34.7-10.23h5.03v-47.28h-5.37ZM2149.71,264.45c-7.71-17.94-18.44-33.7-32.19-46.94-13.58-13.24-29.51-23.64-47.61-31.35-18.11-7.54-37.55-11.4-58.18-11.4s-40.07,3.86-58.34,11.4c-18.27,7.71-34.2,18.11-47.78,31.35-13.41,13.24-24.14,29-32.19,46.94-7.88,17.94-11.9,37.22-11.9,58.01s4.02,39.4,11.9,57.51c8.05,17.94,18.78,33.7,32.19,46.94,13.58,13.41,29.51,24.14,47.78,31.85,18.27,7.88,37.72,11.74,58.34,11.74s40.07-3.86,58.18-11.74c18.11-7.71,34.03-18.44,47.61-31.85,13.75-13.24,24.48-29,32.19-46.94,7.88-18.11,11.74-37.22,11.74-57.51s-3.86-40.07-11.74-58.01ZM2102.77,360.69c-5.2,11.9-12.41,22.3-21.46,31.18-9.05,8.89-19.45,15.93-31.52,21.12-11.9,5.2-24.64,7.71-38.06,7.71s-26.49-2.52-38.56-7.71c-11.9-5.2-22.47-12.24-31.35-21.12-8.89-8.89-15.93-19.28-21.29-31.18-5.37-11.9-7.88-24.64-7.88-38.22s2.51-26.15,7.88-38.23c5.37-11.9,12.41-22.3,21.29-31.02,8.89-8.89,19.45-15.76,31.35-20.96,12.07-5.2,24.81-7.71,38.56-7.71s26.15,2.52,38.06,7.71c12.07,5.2,22.47,12.07,31.52,20.96,9.05,8.72,16.26,19.11,21.46,31.02,5.03,12.07,7.71,24.81,7.71,38.23s-2.68,26.32-7.71,38.22Z"/>
  </g>
  <path class="cls-1" d="M429.33,127.86c-36.44,34.69-75.7,65.45-121.49,85.13-78.34,33.66-161.58,7.82-239.24-30.94,90.78-103.4,243.58-126.33,360.73-54.2ZM360.91,498.77c-93.84-15.5-169.79,34.3-236.82,97.63,117.16,72.37,270.15,49.53,361.03-53.92-41.09-20.39-83.13-36.93-124.2-43.71ZM342.79,410.5c-14.93-14.55-40.37-34.57-42.54-56.69-2.24-22.89,16.62-48.13,26.64-67.6-15.3,14.67-28.99,34.03-49,42.62-25.26,10.85-53.1-9.69-74.49-21.41-1.02-.56-1.96-1.32-3.06-.34,7.27,6.1,14.53,12.72,21.13,19.6,28.9,30.14,29.34,45.21,10.59,81.76-4.27,8.33-9.35,16.27-13.7,24.54,19.53-19.14,40.63-50.25,71.66-45.13,18.5,3.05,38.02,16.15,54,25.48.61-1.34-.39-2.02-1.22-2.83ZM.95,376.24c1.69,22.27,7.11,44.02,12.54,65.61,3.81,15.13,7.66,30.27,10.31,45.66,2.71,15.74,3.72,31.7,4.81,47.62,1.23,18.07,1.54,36.22.82,54.32-.61,15.39-1.96,30.75-4.12,46-1.77,12.48-4.09,24.89-7.02,37.15-2.24,9.36-4.83,18.64-7.85,27.77-2.9,8.76-6.32,16.91-10.45,25.18,11.91-14.13,23.29-28.71,34.11-43.7,12.02-16.65,23.34-33.81,33.92-51.4,10.7-17.79,20.25-36.06,29.62-54.55,30.05-59.29,52.45-121.15,47.05-181.19-5.78-64.26-48.54-124.14-98.18-177.49-1.98,2.87-3.87,5.78-5.69,8.72-.21.32-.41.64-.58.96-.08.08-.12.19-.17.26-.57.91-1.13,1.83-1.68,2.76-.12.19-.23.36-.34.56-.19.3-.39.62-.56.94-.27.47-.56.92-.82,1.37-.1.17-.18.36-.29.53-.55.93-1.09,1.87-1.63,2.8-.11.18-.23.37-.3.56-.75,1.33-1.5,2.64-2.23,4-.57,1.1-1.15,2.18-1.7,3.27-.57,1.06-1.12,2.13-1.67,3.19-.89,1.77-1.78,3.55-2.62,5.34-.71,1.48-1.39,2.93-2.05,4.41-.23.44-.44.92-.65,1.42-.51,1.12-1.01,2.26-1.49,3.4-.25.55-.49,1.09-.73,1.67-.11.25-.22.51-.32.76-.5,1.19-1,2.4-1.48,3.61-.26.64-.53,1.3-.79,1.94-.05.11-.07.2-.12.31-1.97,3.87-3.18,8.41-4.58,12.52C5.15,308.44.05,335.88.39,363.35c.05,4.3.24,8.6.57,12.89ZM538.54,0,553.08,352.86c-1.87-22.25-7.46-43.96-13.07-65.5-3.93-15.1-7.91-30.21-10.68-45.57-2.84-15.71-3.97-31.67-5.19-47.58-1.38-18.06-1.83-36.2-1.26-54.31.49-15.39,1.71-30.76,3.75-46.03,1.67-12.49,3.89-24.92,6.72-37.2,2.16-9.38,4.68-18.68,7.63-27.84,2.83-8.78,6.19-16.96,10.24-25.26-11.8,14.23-23.06,28.9-33.75,43.97-11.88,16.75-23.06,33.99-33.51,51.68-10.55,17.87-19.96,36.22-29.18,54.79-29.57,59.53-51.47,121.57-45.59,181.57,6.3,64.21,49.54,123.75,99.61,176.69,1.95-2.89,3.82-5.81,5.62-8.76.21-.32.4-.65.57-.97.07-.08.12-.19.17-.27.56-.91,1.12-1.84,1.66-2.77.12-.19.22-.36.34-.56.19-.3.38-.63.55-.94.27-.47.55-.92.81-1.38.1-.17.18-.36.29-.53.54-.93,1.07-1.88,1.6-2.81.11-.18.22-.37.3-.56.74-1.34,1.48-2.65,2.2-4.01.56-1.1,1.14-2.19,1.68-3.28.56-1.06,1.1-2.13,1.65-3.21.87-1.77,1.75-3.57,2.58-5.36.7-1.49,1.37-2.94,2.02-4.43.22-.45.44-.92.64-1.42.5-1.13.99-2.27,1.47-3.41.24-.55.48-1.09.71-1.68.11-.25.21-.51.32-.76.49-1.19.98-2.41,1.45-3.62.25-.64.52-1.31.78-1.94.05-.11.06-.2.12-.31,1.94-3.89,3.11-8.44,4.48-12.56,8.65-26.02,13.53-53.5,12.97-80.96-.09-4.3-.31-8.6-.67-12.89Z"/>
</svg>