<?xml version="1.0" encoding="UTF-8"?>
<svg id="Layer_1" data-name="Layer 1" xmlns="http://www.w3.org/2000/svg" viewBox="0 0 813.71 237.71">
  <defs>
    <style>
      .cls-1 {
        fill: #f04c4d;
      }
    </style>
  </defs>
  <path class="cls-1" d="M153.49,77.2h18.19l1.86,13.55c4.08-5.57,9.13-9.75,15.13-12.53,6-2.78,12.65-4.18,19.96-4.18s13.74,1.27,19.68,3.81c5.94,2.54,11.05,6.03,15.32,10.49,4.27,4.46,7.61,9.72,10.02,15.78,2.41,6.07,3.62,12.56,3.62,19.49s-1.18,13.4-3.53,19.4c-2.35,6-5.66,11.23-9.93,15.69-4.27,4.46-9.31,7.95-15.13,10.49-5.82,2.53-12.25,3.81-19.31,3.81s-13.49-1.46-19.31-4.36c-5.82-2.91-10.52-6.78-14.11-11.6v51.8h-22.46V77.2ZM177.07,123.61c0,4.21.77,8.11,2.32,11.7,1.55,3.59,3.68,6.68,6.4,9.28,2.72,2.6,5.88,4.61,9.47,6.03,3.59,1.42,7.43,2.14,11.51,2.14s7.95-.71,11.6-2.14c3.65-1.42,6.84-3.43,9.56-6.03,2.72-2.6,4.86-5.69,6.4-9.28,1.55-3.59,2.32-7.49,2.32-11.7s-.77-8.29-2.32-11.88c-1.55-3.59-3.68-6.68-6.4-9.28-2.72-2.6-5.91-4.61-9.56-6.03-3.65-1.42-7.52-2.14-11.6-2.14s-7.92.71-11.51,2.14c-3.59,1.42-6.75,3.43-9.47,6.03-2.72,2.6-4.86,5.69-6.4,9.28-1.55,3.59-2.32,7.55-2.32,11.88Z"/>
  <path class="cls-1" d="M376.68,77.2h17.82l2.23,13.37c1.49-2.23,3.34-4.27,5.57-6.13s4.73-3.5,7.52-4.92c2.78-1.42,5.82-2.54,9.1-3.34,3.28-.8,6.59-1.21,9.93-1.21,2.85,0,5.72.16,8.63.46,2.91.31,5.66.84,8.26,1.58v20.98c-4.58-1.73-9.65-2.6-15.22-2.6-4.83,0-9.19.9-13.09,2.69-3.9,1.8-7.21,4.21-9.93,7.24-2.72,3.03-4.8,6.65-6.22,10.86-1.42,4.21-2.14,8.73-2.14,13.55v40.29h-22.46v-92.83Z"/>
  <path class="cls-1" d="M519.09,107.65l33.6,62.38h-21.16l-30.45-44.93-26.18,25.81v20.39h-22.46V38.4h22.46v84.66l49.75-45.86h25.43l-31,30.45Z"/>
  <path class="cls-1" d="M366.35,80.83c-3.62-3.62-9.49-5.02-15.31-1.91l.18,13.32c-4.21-5.94-9.53-10.46-15.97-13.55-6.43-3.09-13.74-4.64-21.9-4.64-7.55,0-14.39,1.3-20.52,3.9-6.13,2.6-11.33,6.13-15.6,10.58-4.27,4.46-7.55,9.69-9.84,15.69-2.29,6-3.43,12.47-3.43,19.4s1.17,13.4,3.53,19.4c2.35,6.01,5.66,11.24,9.93,15.69,4.27,4.46,9.34,7.95,15.22,10.49,5.88,2.53,12.35,3.81,19.4,3.81,7.8,0,14.82-1.55,21.07-4.64,6.25-3.1,11.29-7.24,15.13-12.44.21,7.85,6.64,14.11,14.49,14.11h7.23v-80.45c0-3.42-1.38-6.51-3.62-8.75ZM343.9,146.03c-6.47-3.77-14.36-9.07-21.85-10.31-12.55-2.07-21.09,10.52-28.99,18.27,1.76-3.35,3.81-6.57,5.54-9.93,7.59-14.79,7.41-20.88-4.28-33.08-2.67-2.78-5.61-5.46-8.55-7.93.45-.39.83-.08,1.25.14,8.65,4.74,19.91,13.05,30.14,8.66,8.1-3.48,13.64-11.31,19.82-17.25-4.06,7.88-11.69,18.09-10.78,27.35.87,8.95,11.18,17.05,17.21,22.93.34.33.74.6.5,1.14Z"/>
  <g>
    <path class="cls-1" d="M96.84,39.38c-6.95,0-13.3.9-19.03,2.72-5.61,1.77-10.44,4.24-14.49,7.4,4.31-3.18,9.43-5.67,15.36-7.44,5.75-1.72,12.06-2.61,18.91-2.67-.25,0-.5,0-.74,0ZM85.87,173.86c-4.35-.75-8.5-1.92-12.46-3.49-3.96-1.57-7.63-3.53-11.01-5.89-3.39-2.36-6.33-5.14-8.84-8.34-2.35-3.01-4.23-6.39-5.62-10.16.66,1.99,1.52,3.86,2.53,5.63,2.99,5.2,6.94,9.53,11.83,13.01,4.89,3.48,10.42,6.07,16.58,7.8,6.17,1.72,12.42,2.58,18.77,2.58.23,0,.47,0,.69,0-4.16-.03-8.32-.41-12.48-1.13Z"/>
    <path class="cls-1" d="M143.98,123.77c1.87,4.29,2.81,9.16,2.81,14.6,0,5.8-1.13,10.97-3.4,15.51-2.27,4.53-5.49,8.35-9.65,11.46-4.17,3.11-9.21,5.5-15.09,7.16-5.89,1.66-12.47,2.49-19.72,2.49-.19,0-.38,0-.57,0-4.16-.03-8.32-.41-12.48-1.13-4.35-.75-8.5-1.92-12.46-3.49-3.96-1.57-7.63-3.53-11.01-5.89-3.39-2.36-6.33-5.14-8.84-8.34-2.35-3.01-4.23-6.39-5.62-10.16,0,0-.01-.02-.01-.03-.09-.25-.18-.49-.26-.73-1.42-4.08-2.13-8.59-2.13-13.55h27.29c0,3.99.63,7.38,1.9,10.16,1.27,2.78,3.04,5.03,5.31,6.75,2.26,1.72,4.99,2.98,8.2,3.76,3.2.79,6.77,1.18,10.7,1.18,3.51,0,6.56-.38,9.16-1.13,2.6-.75,4.74-1.8,6.44-3.13,1.69-1.33,2.95-2.92,3.76-4.76s1.22-3.82,1.22-5.94c0-2.3-.33-4.37-.99-6.21-.66-1.84-1.95-3.55-3.85-5.12-1.9-1.58-4.53-3.11-7.89-4.62-3.35-1.51-7.69-3.11-13.01-4.8-6.04-1.93-11.74-4.11-17.09-6.53-5.35-2.42-10.03-5.27-14.05-8.57-4.02-3.29-7.19-7.09-9.52-11.37-2.32-4.29-3.49-9.31-3.49-15.05s1.19-10.53,3.58-15.09c2.35-4.49,5.62-8.31,9.84-11.47.1-.07.19-.15.28-.22,4.31-3.18,9.43-5.67,15.36-7.44,5.75-1.72,12.06-2.61,18.91-2.67.23,0,.47,0,.71,0,7.31,0,13.95,1.01,19.94,3.04,5.98,2.02,11.09,4.85,15.32,8.47,4.23,3.63,7.49,7.94,9.79,12.92,2.29,4.99,3.44,10.44,3.44,16.36h-27.2c0-2.78-.44-5.35-1.31-7.7-.87-2.36-2.22-4.38-4.04-6.07-1.81-1.69-4.08-3.01-6.8-3.95-2.72-.93-5.92-1.41-9.61-1.41s-6.67.4-9.3,1.18c-2.62.78-4.8,1.87-6.52,3.26-1.72,1.39-3.02,3.02-3.9,4.89-.88,1.87-1.32,3.87-1.32,5.98,0,4.35,2.22,8,6.67,10.92,4.44,2.93,10.95,5.67,19.54,8.21,7.19,2.24,13.52,4.71,18.99,7.43,5.47,2.72,10.03,5.8,13.69,9.25,3.66,3.44,6.42,7.31,8.29,11.6Z"/>
  </g>
  <g>
    <path d="M671.8,110.18c0,10.09-1.36,19.14-4.08,27.15-2.72,8.01-6.54,14.79-11.47,20.35-4.93,5.56-10.83,9.84-17.72,12.83-6.89,2.99-14.47,4.49-22.75,4.49s-15.86-1.5-22.75-4.49c-6.89-2.99-12.83-7.27-17.81-12.83-4.99-5.56-8.87-12.34-11.65-20.35-2.78-8.01-4.17-17.06-4.17-27.15v-5.8c0-10.03,1.37-19.07,4.12-27.1,2.75-8.04,6.6-14.87,11.56-20.49,4.95-5.62,10.88-9.93,17.77-12.92,6.89-2.99,14.47-4.49,22.75-4.49s15.86,1.5,22.75,4.49c6.89,2.99,12.81,7.3,17.77,12.92,4.95,5.62,8.81,12.45,11.56,20.49,2.75,8.04,4.12,17.07,4.12,27.1v5.8ZM644.24,104.19c0-13.84-2.48-24.35-7.43-31.55-4.96-7.19-12.03-10.79-21.21-10.79s-16.26,3.6-21.21,10.79c-4.96,7.19-7.43,17.71-7.43,31.55v5.98c0,6.89.65,12.98,1.95,18.27,1.3,5.29,3.17,9.73,5.62,13.33,2.45,3.6,5.45,6.32,9.02,8.16,3.57,1.84,7.64,2.76,12.24,2.76,9.19,0,16.23-3.63,21.12-10.88,4.9-7.25,7.34-17.8,7.34-31.64v-5.98Z"/>
    <path d="M749.17,138.55c0-2.3-.33-4.37-1-6.21-.67-1.84-1.95-3.55-3.85-5.12-1.9-1.57-4.53-3.11-7.89-4.62-3.35-1.51-7.69-3.11-13.01-4.8-6.04-1.93-11.74-4.11-17.09-6.53-5.35-2.42-10.03-5.27-14.05-8.57-4.02-3.29-7.19-7.09-9.52-11.38-2.33-4.29-3.49-9.31-3.49-15.05s1.19-10.53,3.58-15.09c2.39-4.56,5.74-8.44,10.06-11.65,4.32-3.2,9.46-5.7,15.41-7.48,5.95-1.78,12.49-2.67,19.63-2.67s13.96,1.01,19.94,3.04c5.98,2.03,11.09,4.85,15.32,8.48,4.23,3.63,7.49,7.93,9.79,12.92,2.3,4.99,3.44,10.44,3.44,16.36h-27.2c0-2.78-.44-5.35-1.31-7.71-.88-2.36-2.22-4.38-4.03-6.07-1.81-1.69-4.08-3.01-6.8-3.94-2.72-.94-5.92-1.41-9.61-1.41s-6.66.39-9.29,1.18c-2.63.79-4.8,1.87-6.53,3.26-1.72,1.39-3.02,3.02-3.9,4.89-.88,1.87-1.31,3.87-1.31,5.98,0,4.35,2.22,7.99,6.66,10.92,4.44,2.93,10.95,5.67,19.53,8.2,7.19,2.24,13.52,4.71,18.99,7.43,5.47,2.72,10.03,5.8,13.69,9.25,3.66,3.44,6.42,7.31,8.29,11.6,1.87,4.29,2.81,9.16,2.81,14.59,0,5.8-1.13,10.97-3.4,15.5-2.27,4.53-5.48,8.36-9.65,11.47-4.17,3.11-9.2,5.5-15.09,7.16-5.89,1.66-12.46,2.49-19.72,2.49-4.35,0-8.7-.38-13.05-1.13-4.35-.75-8.51-1.92-12.46-3.49-3.96-1.57-7.63-3.53-11.01-5.89-3.39-2.36-6.33-5.14-8.84-8.34-2.51-3.2-4.47-6.84-5.89-10.92-1.42-4.08-2.13-8.6-2.13-13.55h27.29c0,3.99.63,7.37,1.9,10.15,1.27,2.78,3.04,5.03,5.3,6.75,2.27,1.72,5,2.98,8.2,3.76,3.2.79,6.77,1.18,10.7,1.18,3.5,0,6.56-.38,9.16-1.13,2.6-.75,4.74-1.8,6.44-3.13,1.69-1.33,2.95-2.91,3.76-4.76.82-1.84,1.22-3.82,1.22-5.94Z"/>
  </g>
</svg>