<?xml version="1.0" encoding="UTF-8"?>
<svg id="Layer_1" data-name="Layer 1" xmlns="http://www.w3.org/2000/svg" xmlns:xlink="http://www.w3.org/1999/xlink" viewBox="0 0 2808.78 793.14">
  <defs>
    <style>
      .cls-1 {
        fill: #7513ff;
      }

      .cls-2 {
        fill: #4f07ff;
      }

      .cls-3 {
        fill: #6a0fff;
      }

      .cls-4 {
        fill: #991eff;
      }

      .cls-5 {
        fill: #7e15ff;
      }

      .cls-6 {
        fill: #951cff;
      }

      .cls-7 {
        fill: #620dff;
      }

      .cls-8 {
        fill: #5609ff;
      }

      .cls-9 {
        fill: #7713ff;
      }

      .cls-10 {
        fill: #a621ff;
      }

      .cls-11 {
        fill: #650eff;
      }

      .cls-12 {
        fill: #9e1fff;
      }

      .cls-13 {
        fill: #8818ff;
      }

      .cls-14 {
        fill: #8b19ff;
      }

      .cls-15 {
        fill: #4203ff;
      }

      .cls-16 {
        fill: #a321ff;
      }

      .cls-17 {
        fill: #8116ff;
      }

      .cls-18 {
        fill: #630dff;
      }

      .cls-19 {
        fill: #8618ff;
      }

      .cls-20 {
        fill: #3d02ff;
      }

      .cls-21 {
        fill: #961cff;
      }

      .cls-22 {
        fill: #7111ff;
      }

      .cls-23 {
        fill: #8317ff;
      }

      .cls-24 {
        fill: #5008ff;
      }

      .cls-25 {
        fill: #3e02ff;
      }

      .cls-26 {
        fill: #4805ff;
      }

      .cls-27 {
        fill: #6b10ff;
      }

      .cls-28 {
        fill: #fff;
      }

      .cls-29 {
        fill: #4705ff;
      }

      .cls-30 {
        fill: #570aff;
      }

      .cls-31 {
        fill: #a822ff;
      }

      .cls-32 {
        fill: #9f1fff;
      }

      .cls-33 {
        fill: #8718ff;
      }

      .cls-34 {
        fill: #9a1eff;
      }

      .cls-35 {
        fill: #5309ff;
      }

      .cls-36 {
        fill: #9d1fff;
      }

      .cls-37 {
        fill: #4003ff;
      }

      .cls-38 {
        fill: #8518ff;
      }

      .cls-39 {
        fill: #901bff;
      }

      .cls-40 {
        fill: none;
      }

      .cls-41 {
        fill: #8d1aff;
      }

      .cls-42 {
        fill: #4c06ff;
      }

      .cls-43 {
        fill: #a722ff;
      }

      .cls-44 {
        fill: #7c15ff;
      }

      .cls-45 {
        fill: #7011ff;
      }

      .cls-46 {
        fill: #3a01ff;
      }

      .cls-47 {
        fill: #9b1eff;
      }

      .cls-48 {
        fill: #7613ff;
      }

      .cls-49 {
        fill: #580aff;
      }

      .cls-50 {
        fill: #5509ff;
      }

      .cls-51 {
        fill: #4604ff;
      }

      .cls-52 {
        fill: #3c01ff;
      }

      .cls-53 {
        fill: #8e1aff;
      }

      .cls-54 {
        fill: #4404ff;
      }

      .cls-55 {
        fill: #8417ff;
      }

      .cls-56 {
        fill: #a421ff;
      }

      .cls-57 {
        fill: #6f11ff;
      }

      .cls-58 {
        fill: #7412ff;
      }

      .cls-59 {
        fill: #7312ff;
      }

      .cls-60 {
        fill: #680fff;
      }

      .cls-61 {
        fill: #660eff;
      }

      .cls-62 {
        fill: #6d10ff;
      }

      .cls-63 {
        fill: #9c1eff;
      }

      .cls-64 {
        fill: #a320ff;
      }

      .cls-65 {
        fill: #5108ff;
      }

      .cls-66 {
        fill: #8016ff;
      }

      .cls-67 {
        fill: #610dff;
      }

      .cls-68 {
        fill: #7f16ff;
      }

      .cls-69 {
        fill: #670eff;
      }

      .cls-70 {
        fill: #931cff;
      }

      .cls-71 {
        fill: #8217ff;
      }

      .cls-72 {
        fill: #590aff;
      }

      .cls-73 {
        fill: #8c1aff;
      }

      .cls-74 {
        fill: #7212ff;
      }

      .cls-75 {
        fill: #5c0bff;
      }

      .cls-76 {
        fill: #4504ff;
      }

      .cls-77 {
        fill: #4a06ff;
      }

      .cls-78 {
        fill: #921bff;
      }

      .cls-79 {
        fill: #3800ff;
      }

      .cls-80 {
        fill: #7b15ff;
      }

      .cls-81 {
        fill: #1e3a8b;
      }

      .cls-82 {
        fill: #4d07ff;
      }

      .cls-83 {
        fill: #5a0bff;
      }

      .cls-84 {
        fill: #941cff;
      }

      .cls-85 {
        fill: #6e10ff;
      }

      .cls-86 {
        fill: #a220ff;
      }

      .cls-87 {
        fill: #8a19ff;
      }

      .cls-88 {
        fill: #7914ff;
      }

      .cls-89 {
        fill: #5208ff;
      }

      .cls-90 {
        fill: #a120ff;
      }

      .cls-91 {
        fill: #5e0cff;
      }

      .cls-92 {
        fill: #3700ff;
      }

      .cls-93 {
        fill: #4906ff;
      }

      .cls-94 {
        fill: #3f02ff;
      }

      .cls-95 {
        fill: #8919ff;
      }

      .cls-96 {
        fill: #911bff;
      }

      .cls-97 {
        fill: #600cff;
      }

      .cls-98 {
        fill: #8f1aff;
      }

      .cls-99 {
        fill: #4e07ff;
      }

      .cls-100 {
        fill: #a521ff;
      }

      .cls-101 {
        fill: #5b0bff;
      }

      .cls-102 {
        fill: #7814ff;
      }

      .cls-103 {
        fill: #690fff;
      }

      .cls-104 {
        fill: #4103ff;
      }

      .cls-105 {
        fill: #7d15ff;
      }

      .cls-106 {
        fill: #640eff;
      }

      .cls-107 {
        fill: #971dff;
      }

      .cls-108 {
        clip-path: url(#clippath);
      }

      .cls-109 {
        fill: #981dff;
      }

      .cls-110 {
        fill: #3901ff;
      }

      .cls-111 {
        fill: #5d0cff;
      }

      .cls-112 {
        fill: #a020ff;
      }

      .cls-113 {
        fill: #7a14ff;
      }
    </style>
    <clipPath id="clippath">
      <rect class="cls-40" width="793.14" height="793.14" rx="124.57" ry="124.57"/>
    </clipPath>
  </defs>
  <path class="cls-81" d="M2800.97,393.44c-5.36-12.68-13.54-23.38-24.28-31.82-10.2-7.95-23.03-14.54-38.12-19.53-14.24-4.68-30.89-8.79-49.44-12.2-13.26-2.6-24.77-5.57-34.14-8.84-7.91-2.78-13.87-6.33-17.72-10.62-3.18-3.52-4.73-8.12-4.73-14.05,0-4.75,1.3-8.63,4.1-12.17,3.06-3.9,8.02-7.12,14.75-9.65,7.47-2.78,17.07-4.2,28.5-4.2,6.68,0,14.08,1.14,22.01,3.39,8.42,2.39,16.49,5.38,24.05,8.84,7.03,3.29,12.59,6.68,16.53,10.11.21.19.46.42.72.6,5.82,4.38,12.5,6.59,19.8,6.59,10.41,0,19.85-4.2,27.34-12.13,7.42-7.84,11.15-16.86,11.15-26.81,0-8.95-3.08-22.05-17.72-33.79-11.76-9.99-26.88-18.3-44.99-24.67-18.04-6.33-37.87-9.53-58.9-9.53-22.49,0-43.37,3.99-62.13,11.87-19.29,8.12-34.92,20.24-46.38,35.99-11.73,16.05-17.65,35.5-17.65,57.84,0,14.59,2.46,28.04,7.28,39.93,4.94,12.13,12.31,22.82,21.96,31.75,9.41,8.74,21.2,15.98,34.99,21.52,13.24,5.36,28.76,9.37,46.1,11.94,16.19,2.27,29.61,5.45,39.84,9.44,9.21,3.64,15.95,7.88,20.01,12.62,3.46,4.06,5.13,8.95,5.13,14.96,0,4.24-1.6,7.91-5.03,11.43-4.41,4.55-10.48,8.26-18.09,11.06-7.93,2.95-16.84,4.43-26.48,4.43-14.86,0-27.34-2.11-37.08-6.26-10.2-4.34-20.71-10.9-31.38-19.6-6.79-5.45-14.63-8.19-23.31-8.19-10.99,0-20.66,4.1-28.04,11.9-7.24,7.7-10.9,16.79-10.9,27.04,0,6.19,1.53,12.38,4.48,18.32,2.9,5.77,7,10.95,12.17,15.28,16.65,14.4,34.51,24.63,53.06,30.43,18.09,5.64,38.63,8.51,60.99,8.51s43.18-4.15,62.4-12.36c19.64-8.39,35.78-20.71,47.96-36.62,12.57-16.42,18.97-36.11,18.97-58.53,0-17.07-2.64-31.93-7.81-44.22ZM2530.41,300.96c-8.12-21.1-19.73-39.93-34.51-56.03-14.89-16.19-32.79-29.01-53.2-38.17-20.48-9.18-43.06-13.8-67.11-13.8s-46.66,4.61-66.97,13.82c-20.24,9.14-38.05,21.98-52.92,38.15-14.79,16.09-26.39,34.92-34.53,56.03-8.09,21.01-12.17,43.94-12.17,68.11s4.08,47.08,12.17,68.09c8.09,21.1,19.73,39.96,34.53,56.05,14.86,16.19,32.67,29.01,52.92,38.15,20.31,9.18,42.88,13.82,66.97,13.82s46.64-4.64,67.13-13.8c20.38-9.14,38.29-21.98,53.17-38.17,14.82-16.09,26.39-34.97,34.51-56.05,8.09-21.03,12.22-43.92,12.22-68.09s-4.13-47.08-12.22-68.11ZM2447.39,418.67c-7.14,14.47-17.02,26.04-29.4,34.46-12.2,8.33-26.09,12.34-42.39,12.34s-30.24-4.01-42.44-12.34c-12.5-8.51-22.05-19.76-29.17-34.39-7.12-14.68-10.74-31.4-10.74-49.67s3.62-35.34,10.74-49.86c7.12-14.49,16.63-25.67,29.17-34.21,12.2-8.33,26.09-12.36,42.44-12.36s30.19,4.04,42.39,12.36c12.38,8.39,22.26,20.01,29.4,34.44,7.28,14.68,10.97,31.38,10.97,49.63s-3.69,34.92-10.97,49.6ZM2195.46,471.84l-70.85-77.18,59.06-54.36c10.02-8.84,15.07-18.85,15.07-29.85,0-8.65-3.69-17.14-10.92-25.23-7.54-8.37-17.04-12.8-27.57-12.8s-20.8,4.24-28.71,12.15l-75.85,73.23v-138.19c0-11.18-3.78-20.78-11.32-28.57-7.49-7.68-17.35-11.76-28.52-11.76s-21.1,4.08-28.57,11.76c-7.51,7.75-11.32,17.37-11.32,28.57v280.71c0,11.25,3.8,20.85,11.32,28.55,7.47,7.68,17.35,11.73,28.57,11.73s21.03-4.06,28.57-11.73c7.35-7.63,11.27-17.49,11.27-28.55v-42.28l9.09-8.37,73.05,77.34c7.79,8.63,17.9,13.15,29.27,13.15,9.02,0,17.86-3.46,26.3-10.3,9.18-7.37,13.98-17.44,13.98-29.1,0-10.9-4.06-20.69-11.92-28.94ZM1949.16,278.51c-8.51-7.07-18.92-10.62-30.98-10.62-8.51,0-17.14,1.04-25.62,3.08-8.7,2.04-16.97,5.33-24.65,9.69-5.26,2.99-10.2,6.54-14.77,10.51-1.51-2.5-3.32-4.82-5.43-6.96-7.49-7.72-17.39-11.78-28.52-11.78s-21.08,4.06-28.55,11.78c-7.44,7.58-11.34,17.44-11.34,28.52v187.61c0,11.25,3.8,20.85,11.32,28.55,7.47,7.68,17.35,11.73,28.57,11.73s21.03-4.06,28.57-11.73c7.35-7.63,11.27-17.49,11.27-28.55v-107.67c0-9.44,1.18-17.55,3.59-24.14,2.32-6.52,5.36-11.97,9.07-16.26,3.43-4.01,7.14-6.96,11.11-8.79,3.97-1.83,7.7-2.71,11.32-2.71,4.22,0,7.91.7,10.9,2.04,6.26,2.88,13.31,4.31,20.92,4.31,9.09,0,17.49-3.25,24.95-9.6,8.05-6.86,12.15-17.35,12.15-31.14,0-7.47-2.39-18.34-13.87-27.87ZM1746.27,279.81c-7.47-7.47-17.28-11.41-28.43-11.41s-21.06,4.06-28.59,11.78c-2.27,2.37-4.2,4.87-5.77,7.56-7.63-4.99-16.28-9.23-25.86-12.73-12.29-4.38-25.81-6.61-40.16-6.61-22.61,0-43.57,6.1-62.24,18.13-18.39,11.87-33.23,28.45-44.11,49.3-10.69,20.64-16.14,44.69-16.14,71.45s5.45,50.35,16.14,70.98c10.88,20.85,25.9,37.45,44.64,49.32,18.9,12.01,40.28,18.09,63.54,18.09,12.96,0,25.28-2.18,36.57-6.52,10.83-4.17,20.5-9.39,28.71-15.54,1.39,2.04,2.95,3.94,4.73,5.77,7.49,7.68,17.37,11.73,28.55,11.73s21.1-4.06,28.52-11.73c7.54-7.7,11.34-17.3,11.34-28.55v-192.15c0-11.57-3.83-21.31-11.43-28.89ZM1657.99,419.73c-28.76,14.75-27.2,53.36-31.65,81.14-1.44-9.51-2.11-19.18-3.66-28.66-6.86-41.67-16.44-53.85-58.74-61.13-9.67-1.65-19.71-2.69-29.45-3.27.32-1.48,1.55-1.44,2.74-1.58,24.86-3.41,60.43-3.43,74.69-27.85,11.27-19.34,10.76-43.71,14.42-65.21,3.62,22.22,3.46,54.64,19.32,72.17,15.33,16.97,48.58,18,69.82,20.89,1.21.14,2.44.09,2.74,1.58-18.9,2.04-43.06,3.13-60.22,11.92ZM1465.35,335.07c-10.81-20.69-25.74-37.2-44.32-49.07-18.81-12.01-40.26-18.11-63.82-18.11-12.06,0-23.72,2.11-34.67,6.26-10.6,4.04-20.13,9.3-28.45,15.65-.51.42-1.04.83-1.55,1.23-1.51-2.41-3.27-4.71-5.31-6.79-7.49-7.75-17.37-11.8-28.57-11.8s-21.08,4.06-28.55,11.78c-7.49,7.65-11.29,17.25-11.29,28.52v278.44c0,11.48,3.97,21.5,11.36,28.87,7.44,7.44,17.3,11.43,28.48,11.43s21.1-4.08,28.57-11.76c7.37-7.63,11.27-17.49,11.27-28.55v-63.31c6.68,4.1,14.08,7.65,22.08,10.62,11.94,4.43,24.88,6.68,38.47,6.68,22.98,0,44.04-6.12,62.5-18.18,18.3-11.9,33.07-28.48,43.83-49.23,10.76-20.66,16.19-44.69,16.19-71.42s-5.43-50.72-16.21-71.26ZM1396.96,439.68c-4.64,9.69-10.83,17.07-18.85,22.52-7.79,5.26-16.86,7.81-27.69,7.81s-20.04-2.57-28.01-7.88c-8.12-5.4-14.33-12.75-19.02-22.47-4.75-9.83-7.17-21.06-7.17-33.32s2.41-23.72,7.12-33.28c4.66-9.44,10.9-16.7,19.09-22.15,7.95-5.29,17.11-7.86,27.99-7.86s19.9,2.55,27.69,7.84c8.09,5.47,14.26,12.73,18.92,22.15,4.68,9.58,7.07,20.78,7.07,33.3s-2.39,23.47-7.14,33.35ZM1194.68,420.8c-5.75-10.25-13.45-18.78-22.87-25.32-8.74-6.03-18.46-10.99-28.85-14.68-9.65-3.43-19.32-6.42-28.57-8.9-8.53-2.34-16.63-4.78-24.12-7.3-6.03-1.99-10.71-4.48-13.96-7.4-1.3-1.18-2.64-2.95-2.64-7.21s.83-6.42,1.67-7.12c2.23-2.02,4.85-3.29,7.95-3.92,4.48-.88,8.6-1.34,12.29-1.34,9.32,0,17.58,1.6,24.53,4.78,6.77,3.08,12.01,7.07,15.93,12.13.42.58.9,1.07,1.39,1.55,6.08,5.61,13.68,8.79,22.63,9.44.97.07,1.95.09,2.92.09,8.12,0,15.47-2.55,21.82-7.61,12.22-9.9,13.96-20.82,13.26-28.29-.86-8.6-3.62-16.23-8.28-22.59-.09-.09-.16-.19-.23-.28-7.42-9.55-16.72-17.32-27.64-23.17-10.37-5.5-21.36-9.55-32.74-12.06-11.13-2.46-21.98-3.71-32.23-3.71-16.49,0-32.42,3.25-47.42,9.65-15.33,6.54-28.06,16.05-37.82,28.25-10.27,12.82-15.47,28.48-15.47,46.45,0,15.56,3.18,28.87,9.46,39.54,6.1,10.46,14.19,18.99,24,25.32,9,5.87,19.04,10.69,29.82,14.31,9.86,3.36,19.76,6.49,29.64,9.35,8.7,2.3,16.67,4.8,23.65,7.37,5.96,2.18,10.69,4.75,14.05,7.68,1.25,1.11,2.46,2.67,2.46,6.38,0,4.06-.77,6.98-2.11,8.26-2.34,2.16-5.01,3.52-8.16,4.15-4.73.9-9.11,1.51-12.99,1.79-12.31-.02-22.47-2.04-30.29-5.94-8.42-4.2-16.63-10.27-24.42-18.09-7.3-7.28-15.31-11.34-23.77-12.04-1.04-.09-2.11-.12-3.15-.12-7.07,0-13.77,1.95-20.13,5.91-13.94,8.93-17.28,19.78-17.6,27.32-.42,9.51,1.72,17.67,6.61,24.47,13.29,17.74,30.26,30.26,50.46,37.29,19.11,6.63,38.52,9.99,57.72,9.99,15.82,0,31.47-3.13,46.57-9.32,15.49-6.35,28.59-15.91,38.96-28.36,10.99-13.19,16.53-29.2,16.53-47.59,0-15.44-2.95-28.59-8.88-39.1Z"/>
  <g class="cls-108">
    <polygon class="cls-31" points="0 727.81 80.68 793.14 0 793.14 0 727.81"/>
    <polygon class="cls-31" points="0 716.26 94.94 793.14 80.68 793.14 0 727.81 0 716.26"/>
    <polygon class="cls-43" points="0 704.71 109.2 793.14 94.94 793.14 0 716.26 0 704.71"/>
    <polygon class="cls-43" points="0 693.17 123.46 793.14 109.2 793.14 0 704.71 0 693.17"/>
    <polygon class="cls-10" points="0 681.62 137.72 793.14 123.46 793.14 0 693.17 0 681.62"/>
    <polygon class="cls-10" points="0 670.08 151.98 793.14 137.72 793.14 0 681.62 0 670.08"/>
    <polygon class="cls-100" points="0 658.53 166.23 793.14 151.98 793.14 0 670.08 0 658.53"/>
    <polygon class="cls-56" points="0 646.98 180.49 793.14 166.23 793.14 0 658.53 0 646.98"/>
    <polygon class="cls-16" points="0 635.44 194.75 793.14 180.49 793.14 0 646.98 0 635.44"/>
    <polygon class="cls-64" points="0 623.89 209.01 793.14 194.75 793.14 0 635.44 0 623.89"/>
    <polygon class="cls-86" points="0 612.34 223.27 793.14 209.01 793.14 0 623.89 0 612.34"/>
    <polygon class="cls-90" points="0 600.8 237.53 793.14 223.27 793.14 0 612.34 0 600.8"/>
    <polygon class="cls-112" points="0 589.25 251.79 793.14 237.53 793.14 0 600.8 0 589.25"/>
    <polygon class="cls-32" points="0 577.7 266.05 793.14 251.79 793.14 0 589.25 0 577.7"/>
    <polygon class="cls-12" points="0 566.16 280.3 793.14 266.05 793.14 0 577.7 0 566.16"/>
    <polygon class="cls-12" points="0 554.61 294.56 793.14 280.3 793.14 0 566.16 0 554.61"/>
    <polygon class="cls-36" points="0 543.06 308.82 793.14 294.56 793.14 0 554.61 0 543.06"/>
    <polygon class="cls-63" points="0 531.52 323.08 793.14 308.82 793.14 0 543.06 0 531.52"/>
    <polygon class="cls-47" points="0 519.97 337.34 793.14 323.08 793.14 0 531.52 0 519.97"/>
    <polygon class="cls-34" points="0 508.43 351.6 793.14 337.34 793.14 0 519.97 0 508.43"/>
    <polygon class="cls-4" points="0 496.88 365.86 793.14 351.6 793.14 0 508.43 0 496.88"/>
    <polygon class="cls-109" points="0 485.33 380.11 793.14 365.86 793.14 0 496.88 0 485.33"/>
    <polygon class="cls-107" points="0 473.79 394.37 793.14 380.11 793.14 0 485.33 0 473.79"/>
    <polygon class="cls-107" points="0 462.24 408.63 793.14 394.37 793.14 0 473.79 0 462.24"/>
    <polygon class="cls-21" points="0 450.69 422.89 793.14 408.63 793.14 0 462.24 0 450.69"/>
    <polygon class="cls-6" points="0 439.15 437.15 793.14 422.89 793.14 0 450.69 0 439.15"/>
    <polygon class="cls-84" points="0 427.6 451.41 793.14 437.15 793.14 0 439.15 0 427.6"/>
    <polygon class="cls-70" points="0 416.05 465.67 793.14 451.41 793.14 0 427.6 0 416.05"/>
    <polygon class="cls-78" points="0 404.51 479.93 793.14 465.67 793.14 0 416.05 0 404.51"/>
    <polygon class="cls-96" points="0 392.96 494.18 793.14 479.93 793.14 0 404.51 0 392.96"/>
    <polygon class="cls-39" points="0 381.41 508.44 793.14 494.18 793.14 0 392.96 0 381.41"/>
    <polygon class="cls-98" points="0 369.87 522.7 793.14 508.44 793.14 0 381.41 0 369.87"/>
    <polygon class="cls-53" points="0 358.32 536.96 793.14 522.7 793.14 0 369.87 0 358.32"/>
    <polygon class="cls-41" points="0 346.78 551.22 793.14 536.96 793.14 0 358.32 0 346.78"/>
    <polygon class="cls-73" points="0 335.23 565.48 793.14 551.22 793.14 0 346.78 0 335.23"/>
    <polygon class="cls-14" points="0 323.68 579.74 793.14 565.48 793.14 0 335.23 0 323.68"/>
    <polygon class="cls-87" points="0 312.14 593.99 793.14 579.74 793.14 0 323.68 0 312.14"/>
    <polygon class="cls-95" points="0 300.59 608.25 793.14 593.99 793.14 0 312.14 0 300.59"/>
    <polygon class="cls-13" points="0 289.04 622.51 793.14 608.25 793.14 0 300.59 0 289.04"/>
    <polygon class="cls-33" points="0 277.5 636.77 793.14 622.51 793.14 0 289.04 0 277.5"/>
    <polygon class="cls-19" points="0 265.95 651.03 793.14 636.77 793.14 0 277.5 0 265.95"/>
    <polygon class="cls-38" points="0 254.4 665.29 793.14 651.03 793.14 0 265.95 0 254.4"/>
    <polygon class="cls-55" points="0 242.86 679.55 793.14 665.29 793.14 0 254.4 0 242.86"/>
    <polygon class="cls-23" points="0 231.31 693.8 793.14 679.55 793.14 0 242.86 0 231.31"/>
    <polygon class="cls-71" points="0 219.76 708.06 793.14 693.8 793.14 0 231.31 0 219.76"/>
    <polygon class="cls-17" points="0 208.22 722.32 793.14 708.06 793.14 0 219.76 0 208.22"/>
    <polygon class="cls-66" points="0 196.67 736.58 793.14 722.32 793.14 0 208.22 0 196.67"/>
    <polygon class="cls-68" points="0 185.13 750.53 792.89 750.32 793.14 736.58 793.14 0 196.67 0 185.13"/>
    <polygon class="cls-5" points="0 173.58 756.17 785.92 750.53 792.89 0 185.13 0 173.58"/>
    <polygon class="cls-105" points="0 162.03 761.82 778.94 756.17 785.92 0 173.58 0 162.03"/>
    <polygon class="cls-44" points="0 150.49 767.47 771.97 761.82 778.94 0 162.03 0 150.49"/>
    <polygon class="cls-80" points="0 138.94 773.12 765 767.47 771.97 0 150.49 0 138.94"/>
    <polygon class="cls-113" points="0 127.39 778.76 758.02 773.12 765 0 138.94 0 127.39"/>
    <polygon class="cls-88" points="0 115.85 784.41 751.05 778.76 758.02 0 127.39 0 115.85"/>
    <polygon class="cls-102" points="0 104.3 790.06 744.08 784.41 751.05 0 115.85 0 104.3"/>
    <polygon class="cls-9" points="0 92.75 793.14 735.03 793.14 740.26 790.06 744.08 0 104.3 0 92.75"/>
    <polygon class="cls-48" points="0 81.21 793.14 723.48 793.14 735.03 0 92.75 0 81.21"/>
    <polygon class="cls-1" points="0 69.66 793.14 711.94 793.14 723.48 0 81.21 0 69.66"/>
    <polygon class="cls-58" points="0 58.11 793.14 700.39 793.14 711.94 0 69.66 0 58.11"/>
    <polygon class="cls-59" points="0 52.88 3.09 49.07 793.14 688.84 793.14 700.39 0 58.11 0 52.88"/>
    <polygon class="cls-74" points="3.09 49.07 8.73 42.09 793.14 677.3 793.14 688.84 3.09 49.07"/>
    <polygon class="cls-22" points="8.73 42.09 14.38 35.12 793.14 665.75 793.14 677.3 8.73 42.09"/>
    <polygon class="cls-45" points="14.38 35.12 20.03 28.15 793.14 654.2 793.14 665.75 14.38 35.12"/>
    <polygon class="cls-57" points="20.03 28.15 25.67 21.17 793.14 642.66 793.14 654.2 20.03 28.15"/>
    <polygon class="cls-85" points="25.67 21.17 31.32 14.2 793.14 631.11 793.14 642.66 25.67 21.17"/>
    <polygon class="cls-62" points="31.32 14.2 36.97 7.23 793.14 619.56 793.14 631.11 31.32 14.2"/>
    <polygon class="cls-27" points="36.97 7.23 42.62 .25 793.14 608.02 793.14 619.56 36.97 7.23"/>
    <polygon class="cls-3" points="42.62 .25 42.82 0 56.56 0 793.14 596.47 793.14 608.02 42.62 .25"/>
    <polygon class="cls-103" points="70.82 0 793.14 584.92 793.14 596.47 56.56 0 70.82 0"/>
    <polygon class="cls-60" points="85.08 0 793.14 573.38 793.14 584.92 70.82 0 85.08 0"/>
    <polygon class="cls-69" points="99.34 0 793.14 561.83 793.14 573.38 85.08 0 99.34 0"/>
    <polygon class="cls-61" points="113.6 0 793.14 550.29 793.14 561.83 99.34 0 113.6 0"/>
    <polygon class="cls-11" points="127.86 0 793.14 538.74 793.14 550.29 113.6 0 127.86 0"/>
    <polygon class="cls-106" points="142.11 0 793.14 527.19 793.14 538.74 127.86 0 142.11 0"/>
    <polygon class="cls-18" points="156.37 0 793.14 515.65 793.14 527.19 142.11 0 156.37 0"/>
    <polygon class="cls-7" points="170.63 0 793.14 504.1 793.14 515.65 156.37 0 170.63 0"/>
    <polygon class="cls-67" points="184.89 0 793.14 492.55 793.14 504.1 170.63 0 184.89 0"/>
    <polygon class="cls-97" points="199.15 0 793.14 481.01 793.14 492.55 184.89 0 199.15 0"/>
    <polygon class="cls-91" points="213.41 0 793.14 469.46 793.14 481.01 199.15 0 213.41 0"/>
    <polygon class="cls-111" points="227.67 0 793.14 457.91 793.14 469.46 213.41 0 227.67 0"/>
    <polygon class="cls-75" points="241.92 0 793.14 446.37 793.14 457.91 227.67 0 241.92 0"/>
    <polygon class="cls-101" points="256.18 0 793.14 434.82 793.14 446.37 241.92 0 256.18 0"/>
    <polygon class="cls-83" points="270.44 0 793.14 423.27 793.14 434.82 256.18 0 270.44 0"/>
    <polygon class="cls-72" points="284.7 0 793.14 411.73 793.14 423.27 270.44 0 284.7 0"/>
    <polygon class="cls-49" points="298.96 0 793.14 400.18 793.14 411.73 284.7 0 298.96 0"/>
    <polygon class="cls-30" points="313.22 0 793.14 388.64 793.14 400.18 298.96 0 313.22 0"/>
    <polygon class="cls-8" points="327.48 0 793.14 377.09 793.14 388.64 313.22 0 327.48 0"/>
    <polygon class="cls-50" points="341.74 0 793.14 365.54 793.14 377.09 327.48 0 341.74 0"/>
    <polygon class="cls-35" points="355.99 0 793.14 354 793.14 365.54 341.74 0 355.99 0"/>
    <polygon class="cls-89" points="370.25 0 793.14 342.45 793.14 354 355.99 0 370.25 0"/>
    <polygon class="cls-65" points="384.51 0 793.14 330.9 793.14 342.45 370.25 0 384.51 0"/>
    <polygon class="cls-24" points="398.77 0 793.14 319.36 793.14 330.9 384.51 0 398.77 0"/>
    <polygon class="cls-2" points="413.03 0 793.14 307.81 793.14 319.36 398.77 0 413.03 0"/>
    <polygon class="cls-99" points="427.29 0 793.14 296.26 793.14 307.81 413.03 0 427.29 0"/>
    <polygon class="cls-82" points="441.55 0 793.14 284.72 793.14 296.26 427.29 0 441.55 0"/>
    <polygon class="cls-42" points="455.8 0 793.14 273.17 793.14 284.72 441.55 0 455.8 0"/>
    <polygon class="cls-77" points="470.06 0 793.14 261.62 793.14 273.17 455.8 0 470.06 0"/>
    <polygon class="cls-93" points="484.32 0 793.14 250.08 793.14 261.62 470.06 0 484.32 0"/>
    <polygon class="cls-26" points="498.58 0 793.14 238.53 793.14 250.08 484.32 0 498.58 0"/>
    <polygon class="cls-29" points="512.84 0 793.14 226.99 793.14 238.53 498.58 0 512.84 0"/>
    <polygon class="cls-51" points="527.1 0 793.14 215.44 793.14 226.99 512.84 0 527.1 0"/>
    <polygon class="cls-76" points="541.36 0 793.14 203.89 793.14 215.44 527.1 0 541.36 0"/>
    <polygon class="cls-54" points="555.62 0 793.14 192.35 793.14 203.89 541.36 0 555.62 0"/>
    <polygon class="cls-15" points="569.87 0 793.14 180.8 793.14 192.35 555.62 0 569.87 0"/>
    <polygon class="cls-104" points="584.13 0 793.14 169.25 793.14 180.8 569.87 0 584.13 0"/>
    <polygon class="cls-37" points="598.39 0 793.14 157.71 793.14 169.25 584.13 0 598.39 0"/>
    <polygon class="cls-94" points="612.65 0 793.14 146.16 793.14 157.71 598.39 0 612.65 0"/>
    <polygon class="cls-25" points="626.91 0 793.14 134.61 793.14 146.16 612.65 0 626.91 0"/>
    <polygon class="cls-20" points="641.17 0 793.14 123.07 793.14 134.61 626.91 0 641.17 0"/>
    <polygon class="cls-52" points="655.43 0 793.14 111.52 793.14 123.07 641.17 0 655.43 0"/>
    <polygon class="cls-46" points="669.68 0 793.14 99.97 793.14 111.52 655.43 0 669.68 0"/>
    <polygon class="cls-110" points="683.94 0 793.14 88.43 793.14 99.97 669.68 0 683.94 0"/>
    <polygon class="cls-79" points="698.2 0 793.14 76.88 793.14 88.43 683.94 0 698.2 0"/>
    <polygon class="cls-92" points="712.46 0 793.14 65.34 793.14 76.88 698.2 0 712.46 0"/>
    <polygon class="cls-92" points="793.14 65.34 712.46 0 793.14 0 793.14 65.34"/>
  </g>
  <g>
    <path class="cls-28" d="M525.49,197.9c-30.82,29.34-64.02,55.36-102.75,72-66.26,28.47-136.66,6.61-202.34-26.16,76.78-87.45,206.01-106.85,305.09-45.84Z"/>
    <path class="cls-28" d="M572.67,548.57c-76.86,87.49-206.25,106.81-305.34,45.6,56.69-53.56,120.93-95.68,200.29-82.57,34.73,5.74,70.29,19.72,105.05,36.97Z"/>
    <path class="cls-28" d="M453.33,439.34c-13.51-7.89-30.02-18.97-45.67-21.55-26.24-4.33-44.09,21.98-60.61,38.17,3.67-7,7.97-13.71,11.58-20.75,15.86-30.91,15.48-43.66-8.96-69.15-5.57-5.81-11.72-11.42-17.87-16.57.93-.83,1.73-.18,2.59.29,18.09,9.91,41.64,27.28,63,18.11,16.93-7.27,28.51-23.65,41.45-36.05-8.48,16.47-24.43,37.82-22.53,57.18,1.83,18.71,23.35,35.64,35.98,47.95.7.69,1.55,1.26,1.03,2.39Z"/>
    <path class="cls-28" d="M162.71,397.06c-.29-23.23,4.03-46.43,11.52-68.38,1.19-3.47,2.2-7.32,3.87-10.59.05-.09.06-.17.1-.26.22-.54.45-1.1.67-1.64.41-1.02.83-2.05,1.26-3.05.09-.21.18-.43.27-.64.2-.49.4-.95.61-1.41.41-.96.83-1.92,1.26-2.87.17-.42.36-.82.55-1.2.56-1.25,1.13-2.48,1.74-3.73.71-1.51,1.47-3.02,2.22-4.52.47-.9.93-1.81,1.41-2.7.47-.92.96-1.83,1.44-2.76.62-1.14,1.25-2.25,1.89-3.38.06-.16.16-.32.26-.47.46-.79.91-1.58,1.38-2.37.09-.14.16-.3.25-.45.22-.38.46-.77.69-1.16.15-.27.31-.55.47-.8.1-.17.19-.31.29-.47.46-.79.94-1.56,1.42-2.33.05-.06.08-.15.15-.22.15-.27.31-.55.49-.81,1.54-2.48,3.14-4.94,4.81-7.37,41.98,45.12,78.15,95.76,83.04,150.11,4.57,50.78-14.38,103.1-39.79,153.25-7.93,15.64-16.01,31.09-25.06,46.14-8.95,14.88-18.53,29.39-28.69,43.48-9.15,12.68-18.77,25.01-28.85,36.96,3.49-6.99,6.38-13.89,8.84-21.29,2.56-7.73,4.75-15.57,6.64-23.49,2.48-10.37,4.44-20.86,5.93-31.42,1.83-12.9,2.97-25.89,3.49-38.9.61-15.31.35-30.65-.7-45.94-.92-13.46-1.77-26.96-4.06-40.27-2.24-13.01-5.5-25.82-8.72-38.62-4.6-18.26-9.18-36.65-10.61-55.49-.28-3.63-.43-7.27-.48-10.91Z"/>
    <path class="cls-28" d="M630.72,399.1c.47,23.22-3.65,46.47-10.97,68.47-1.16,3.48-2.15,7.33-3.79,10.62-.04.09-.05.17-.1.26-.22.54-.44,1.1-.66,1.64-.4,1.02-.82,2.06-1.23,3.06-.09.22-.18.43-.27.65-.2.49-.4.95-.6,1.42-.4.96-.82,1.93-1.24,2.88-.17.42-.35.83-.54,1.2-.55,1.26-1.11,2.49-1.71,3.75-.7,1.52-1.45,3.04-2.18,4.54-.46.91-.92,1.81-1.39,2.71-.46.93-.94,1.84-1.42,2.78-.61,1.15-1.23,2.26-1.86,3.39-.06.16-.16.32-.25.48-.45.79-.9,1.59-1.36,2.38-.09.14-.16.31-.24.45-.22.39-.46.77-.68,1.17-.14.27-.31.55-.47.8-.1.17-.19.31-.29.48-.46.79-.93,1.57-1.4,2.34-.04.06-.08.15-.14.22-.14.27-.31.55-.48.82-1.52,2.5-3.1,4.97-4.75,7.41-42.35-44.78-78.92-95.13-84.24-149.44-4.98-50.74,13.54-103.21,38.56-153.56,7.8-15.7,15.76-31.22,24.68-46.34,8.83-14.95,18.29-29.54,28.34-43.71,9.04-12.75,18.57-25.16,28.55-37.19-3.43,7.02-6.27,13.94-8.66,21.36-2.5,7.75-4.62,15.61-6.45,23.54-2.39,10.39-4.27,20.9-5.68,31.46-1.73,12.91-2.76,25.91-3.17,38.93-.48,15.32-.1,30.66,1.07,45.93,1.03,13.45,1.99,26.95,4.39,40.24,2.35,12.99,5.71,25.77,9.03,38.54,4.74,18.22,9.47,36.58,11.05,55.4.31,3.63.49,7.27.57,10.9Z"/>
  </g>
</svg>