<?xml version="1.0" encoding="UTF-8"?>
<svg id="Layer_1" xmlns="http://www.w3.org/2000/svg" version="1.1" viewBox="0 0 228.2 237">
  <!-- Generator: Adobe Illustrator 29.0.1, SVG Export Plug-In . SVG Version: 2.1.0 Build 192)  -->
  <defs>
    <style>
      .st0 {
        fill: #7b5aa6;
      }

      .st1 {
        fill: #fff;
      }
    </style>
  </defs>
  <rect class="st0" x="4.96" y="9.36" width="218.28" height="218.28" rx="45.29" ry="45.29"/>
  <path class="st1" d="M146.15,69.11c-7.66,7.29-15.92,13.76-25.54,17.9-16.47,7.08-33.97,1.64-50.3-6.5,19.09-21.74,51.21-26.56,75.85-11.39ZM131.77,147.1c-19.73-3.26-35.7,7.21-49.79,20.53,24.63,15.22,56.8,10.41,75.91-11.34-8.64-4.29-17.48-7.76-26.11-9.19ZM127.95,128.54c-3.14-3.06-8.49-7.27-8.94-11.92-.47-4.81,3.49-10.12,5.6-14.21-3.22,3.08-6.1,7.15-10.3,8.96-5.31,2.28-11.17-2.04-15.66-4.5-.21-.12-.41-.28-.64-.07,1.53,1.28,3.06,2.68,4.44,4.12,6.08,6.34,6.17,9.51,2.23,17.19-.9,1.75-1.97,3.42-2.88,5.16,4.11-4.03,8.54-10.57,15.07-9.49,3.89.64,7.99,3.39,11.35,5.36.13-.28-.08-.42-.26-.59ZM56.08,121.33c.36,4.68,1.49,9.25,2.64,13.79.8,3.18,1.61,6.36,2.17,9.6.57,3.31.78,6.67,1.01,10.01.26,3.8.32,7.61.17,11.42-.13,3.24-.41,6.46-.87,9.67-.37,2.62-.86,5.23-1.48,7.81-.47,1.97-1.02,3.92-1.65,5.84-.61,1.84-1.33,3.56-2.2,5.29,2.5-2.97,4.9-6.04,7.17-9.19,2.53-3.5,4.91-7.11,7.13-10.81,2.25-3.74,4.26-7.58,6.23-11.47,6.32-12.47,11.03-25.47,9.89-38.1-1.22-13.51-10.21-26.1-20.64-37.32-.42.6-.81,1.21-1.2,1.83-.05.07-.09.14-.12.2-.02.02-.02.04-.04.06-.12.19-.24.38-.35.58-.02.04-.05.08-.07.12-.04.06-.08.13-.12.2-.06.1-.12.19-.17.29-.02.04-.04.08-.06.11-.12.2-.23.39-.34.59-.02.04-.05.08-.06.12-.16.28-.31.56-.47.84-.12.23-.24.46-.36.69-.12.22-.24.45-.35.67-.19.37-.37.75-.55,1.12-.15.31-.29.62-.43.93-.05.09-.09.19-.14.3-.11.24-.21.48-.31.71-.05.12-.1.23-.15.35-.02.05-.05.11-.07.16-.1.25-.21.51-.31.76-.05.13-.11.27-.17.41-.01.02-.01.04-.03.06-.42.81-.67,1.77-.96,2.63-1.86,5.46-2.94,11.23-2.86,17,.01.9.05,1.81.12,2.71ZM169.11,42.23,172.17,116.42c-.39-4.68-1.57-9.24-2.75-13.77-.83-3.17-1.66-6.35-2.25-9.58s-.84-6.66-1.09-10c-.29-3.8-.39-7.61-.27-11.42.1-3.24.36-6.47.79-9.68.35-2.63.82-5.24,1.41-7.82.45-1.97.98-3.93,1.6-5.85.59-1.85,1.3-3.57,2.15-5.31-2.48,2.99-4.85,6.08-7.1,9.25-2.5,3.52-4.85,7.15-7.04,10.87-2.22,3.76-4.2,7.62-6.14,11.52-6.22,12.52-10.82,25.56-9.59,38.18,1.32,13.5,10.42,26.02,20.94,37.15.41-.61.8-1.22,1.18-1.84.04-.07.08-.14.12-.2.02-.02.02-.04.04-.06.12-.19.23-.39.35-.58.02-.04.05-.08.07-.12.04-.06.08-.13.12-.2.06-.1.12-.19.17-.29.02-.04.04-.08.06-.11.11-.2.23-.4.34-.59.02-.04.05-.08.06-.12.16-.28.31-.56.46-.84.12-.23.24-.46.35-.69.12-.22.23-.45.35-.67.18-.37.37-.75.54-1.13.15-.31.29-.62.42-.93.05-.09.09-.19.13-.3.1-.24.21-.48.31-.72.05-.12.1-.23.15-.35.02-.05.04-.11.07-.16.1-.25.21-.51.31-.76.05-.13.11-.27.16-.41.01-.02.01-.04.02-.06.41-.82.65-1.77.94-2.64,1.82-5.47,2.85-11.25,2.73-17.02-.02-.9-.06-1.81-.14-2.71Z"/>
</svg>