<?xml version="1.0" encoding="UTF-8"?>
<svg id="Layer_1" data-name="Layer 1" xmlns="http://www.w3.org/2000/svg" xmlns:xlink="http://www.w3.org/1999/xlink" viewBox="0 0 787.99 241.93">
  <defs>
    <style>
      .cls-1 {
        fill: url(#linear-gradient-2);
      }

      .cls-2 {
        fill: #f26e6f;
      }

      .cls-3 {
        fill: url(#linear-gradient);
      }
    </style>
    <linearGradient id="linear-gradient" x1="514.37" y1="126.69" x2="787.99" y2="126.69" gradientUnits="userSpaceOnUse">
      <stop offset="0" stop-color="#fbd0d1"/>
      <stop offset=".51" stop-color="#e38ba6"/>
      <stop offset="1" stop-color="#7c5ba6"/>
    </linearGradient>
    <linearGradient id="linear-gradient-2" x1="0" y1="120.97" x2="184.67" y2="120.97" xlink:href="#linear-gradient"/>
  </defs>
  <g>
    <g>
      <path class="cls-2" d="M234.12,124.14h18.68l-2.02,5.14h20.08l1.4-9.81h-42.19l5.29-38.29-4.67-6.23h120.33l-6.23,44.52h-41.1l-1.4,9.81h41.56l-2.02,14.01h-41.56l-.93,6.69h41.41l-1.87,13.39h-41.41l-.62,4.67h48.41l-1.87,13.23h-126.56l1.87-13.23h46.7l.62-4.67h-37.67l1.87-13.39h37.67l.93-6.69h-23.51l-1.71,4.67h-19.3l9.81-23.82ZM316.94,107.02l.62-4.51h-54.95l-.62,4.51h54.95ZM264.17,91.14h54.95l.78-4.67h-54.95l-.78,4.67Z"/>
      <path class="cls-2" d="M379.36,139.71l-19.77,39.85h26.46l19.92-39.85h-26.61ZM479.6,139.55h-26.46l8.87,40.01h26.47l-8.88-40.01Z"/>
      <path class="cls-2" d="M467.17,99.02c1.79-3.49,3.06-6.38,3.71-8.97h-64.28l-8.72,27.55h22.88l2.96-20.08h29.58l-2.81,20.08h40.63l-2.18,14.79h-40.62l-5.61,40.63c-.52,3.01-1.92,5.48-4.2,7.39-2.29,1.93-4.93,2.88-7.94,2.88h-30.82l13.85-14.47,5.14-36.43h-50.75l2.18-14.79,13.08-36.58-3.58-5.76h86.89c-.85-1.02-1.82-2.1-2.92-3.24-2.15-2.29-4.56-4.5-6.97-6.53.39-.32.65-.07,1.04.14,7.04,3.91,16.25,10.69,24.59,7.1,6.66-2.86,11.16-9.26,16.25-14.09-2.51,4.82-6.69,10.75-8.25,16.62-.52,1.92-.75,3.83-.56,5.7.24,2.46,1.36,4.84,2.92,7.11h0c3.08,4.47,7.87,8.48,11.11,11.67.33.26.65.46.45.91-5.28-3.06-11.74-7.43-17.87-8.41-10.31-1.7-17.29,8.61-23.74,14.94,1.49-2.74,3.12-5.35,4.56-8.16Z"/>
    </g>
    <path class="cls-3" d="M548.1,77.62h40.41l-2.28,15.5h-20.05l-.46,3.04h20.36l-1.97,14.28h-10.03l9.57,16.41h-25.98l-6.38-10.79-9.12,10.94h-27.8l16.1-16.56h-15.65l1.97-14.28h24.92l.46-3.04h-4.41l-.46.76h-20.51l12.91-19.75-3.95-2.13h26.13l-3.8,5.62ZM524.4,130.03h107.72l-6.99,49.53h-107.72l6.99-49.53ZM601.58,166.34l.76-5.47h-55.76l-.76,5.47h55.76ZM548.25,149.18h55.76l.91-6.08h-55.76l-.91,6.08ZM591.7,75.95h54.69l-7.14,50.44h-54.69l7.14-50.44ZM619.96,112.26l2.89-21.42h-10.48l-2.89,21.42h10.48ZM684.23,181.38l6.68-5.47,1.98-14.43h-11.7l-2.74,19.9h-25.98l10.18-71.86h63.51l-8.66,61.83c-.51,2.94-1.88,5.34-4.1,7.22-2.23,1.87-4.81,2.81-7.75,2.81h-21.42ZM724.49,80.66l2.13,25.98h-20.21l-.3-2.58-43,2.58,1.82-12.91,9.42-17.62-3.49-4.1h31.75l-10.94,20.05,13.37-.76-.76-10.64h20.21ZM683.01,148.42h11.7l.76-5.62h-11.55l-.91,5.62ZM685.75,129.73h11.55l1.06-7.29h-11.55l-1.06,7.29ZM777.81,152.82l-27.95,4.71-1.37,9.72h21.88l-.3-.15,6.53-5.77-2.89,20.05h-53.33l7.29-51.66h25.98l-1.82,13.37,27.95-4.71-1.97,14.43ZM785.87,95.09l-27.95,4.71-1.37,9.72h21.57l6.53-5.77-2.73,20.21h-53.33l7.29-51.96h25.98l-1.97,13.37,28.11-4.71-2.13,14.43Z"/>
  </g>
  <path class="cls-1" d="M143.16,42.64c-12.15,11.57-25.24,21.83-40.51,28.39-26.12,11.22-53.88,2.61-79.78-10.32,30.27-34.48,81.22-42.13,120.29-18.07ZM120.35,166.32c-31.29-5.17-56.62,11.44-78.97,32.56,39.07,24.13,90.08,16.51,120.39-17.98-13.7-6.8-27.72-12.31-41.42-14.58ZM114.3,136.88c-4.98-4.85-13.46-11.53-14.18-18.9-.75-7.63,5.54-16.05,8.88-22.54-5.1,4.89-9.67,11.35-16.34,14.21-8.42,3.62-17.71-3.23-24.84-7.14-.34-.19-.65-.44-1.02-.11,2.42,2.03,4.85,4.24,7.04,6.54,9.64,10.05,9.78,15.08,3.53,27.26-1.42,2.78-3.12,5.42-4.57,8.18,6.51-6.38,13.55-16.76,23.9-15.05,6.17,1.02,12.68,5.38,18.01,8.5.2-.45-.13-.67-.41-.94ZM.32,125.46c.56,7.43,2.37,14.68,4.18,21.88,1.27,5.05,2.56,10.09,3.44,15.23.9,5.25,1.24,10.57,1.6,15.88.41,6.03.51,12.08.27,18.11-.2,5.13-.65,10.25-1.38,15.34-.59,4.16-1.36,8.3-2.34,12.39-.75,3.12-1.61,6.21-2.62,9.26-.97,2.92-2.11,5.64-3.48,8.4,3.97-4.71,7.77-9.57,11.37-14.57,4.01-5.55,7.78-11.27,11.31-17.14,3.57-5.93,6.75-12.02,9.88-18.19,10.02-19.77,17.49-40.4,15.69-60.42-1.93-21.43-16.19-41.4-32.74-59.19-.66.96-1.29,1.93-1.9,2.91-.07.11-.14.21-.19.32-.03.03-.04.06-.06.09-.19.3-.38.61-.56.92-.04.06-.08.12-.11.19-.06.1-.13.21-.19.31-.09.16-.19.31-.27.46-.03.06-.06.12-.1.18-.18.31-.36.62-.54.93-.04.06-.08.12-.1.19-.25.44-.5.88-.74,1.33-.19.37-.38.73-.57,1.09-.19.35-.37.71-.56,1.06-.3.59-.59,1.18-.87,1.78-.24.49-.46.98-.68,1.47-.08.15-.15.31-.22.47-.17.37-.34.76-.5,1.13-.08.18-.16.36-.24.56-.04.08-.07.17-.11.25-.17.4-.33.8-.49,1.2-.09.21-.18.43-.26.65-.02.04-.02.07-.04.1-.66,1.29-1.06,2.81-1.53,4.17C1.72,102.85.02,112,.13,121.16c.02,1.43.08,2.87.19,4.3ZM179.58,0,184.43,117.66c-.62-7.42-2.49-14.66-4.36-21.84-1.31-5.03-2.64-10.07-3.56-15.2-.95-5.24-1.33-10.56-1.73-15.86-.46-6.02-.61-12.07-.42-18.11.16-5.13.57-10.26,1.25-15.35.56-4.17,1.3-8.31,2.24-12.41.72-3.13,1.56-6.23,2.54-9.28.94-2.93,2.06-5.66,3.42-8.42-3.93,4.74-7.69,9.64-11.25,14.66-3.96,5.59-7.69,11.34-11.17,17.23-3.52,5.96-6.66,12.08-9.73,18.27-9.86,19.85-17.16,40.54-15.2,60.54,2.1,21.41,16.52,41.26,33.21,58.92.65-.96,1.27-1.94,1.87-2.92.07-.11.13-.22.19-.32.02-.03.04-.06.06-.09.19-.3.37-.61.55-.92.04-.06.07-.12.11-.19.06-.1.13-.21.18-.32.09-.16.18-.31.27-.46.03-.06.06-.12.1-.18.18-.31.36-.63.53-.94.04-.06.07-.12.1-.19.25-.45.49-.89.73-1.34.19-.37.38-.73.56-1.09.19-.35.37-.71.55-1.07.29-.59.58-1.19.86-1.79.23-.5.46-.98.67-1.48.07-.15.15-.31.21-.47.17-.38.33-.76.49-1.14.08-.18.16-.36.24-.56.04-.08.07-.17.11-.25.16-.4.33-.8.49-1.21.08-.21.17-.44.26-.65.02-.04.02-.07.04-.1.65-1.3,1.04-2.81,1.49-4.19,2.88-8.68,4.51-17.84,4.33-27-.03-1.43-.1-2.87-.22-4.3Z"/>
</svg>