<svg width="354" height="354" viewBox="0 0 354 354" fill="none" xmlns="http://www.w3.org/2000/svg">
<g clip-path="url(#clip0_681_122)">
<path d="M13.2999 192.31C22.2599 190.7 30.3299 196.02 32.3299 204.82C36.1799 243.93 15.9099 315.98 75.0199 320.13C141.07 324.77 212.49 316.53 279.1 320.13C339.38 311.59 315.1 246.43 320.65 205.68C323.07 187.93 349.72 187.49 352.47 205.68C351.35 230.16 354.26 256.36 352.6 280.63C349.98 318.97 318.32 349.89 280.11 352.14C212.21 348.85 140.46 356.34 73.0099 352.14C34.6999 349.75 3.14994 319.08 0.519941 280.63C-1.14006 256.36 1.76994 230.15 0.649941 205.68C1.28994 199.52 7.35994 193.39 13.2899 192.33L13.2999 192.31Z" fill="white"/>
<g clip-path="url(#clip1_681_122)">
<path d="M13.2999 192.31C22.2599 190.7 30.3299 196.02 32.3299 204.82C36.1799 243.93 15.9099 315.98 75.0199 320.13C141.07 324.77 212.49 316.53 279.1 320.13C339.38 311.59 315.1 246.43 320.65 205.68C323.07 187.93 349.72 187.49 352.47 205.68C351.35 230.16 354.26 256.36 352.6 280.63C349.98 318.97 318.32 349.89 280.11 352.14C212.21 348.85 140.46 356.34 73.0099 352.14C34.6999 349.75 3.14994 319.08 0.519941 280.63C-1.14006 256.36 1.76994 230.15 0.649941 205.68C1.28994 199.52 7.35994 193.39 13.2899 192.33L13.2999 192.31Z" fill="white"/>
<path d="M192.57 55.08V259.58C192.57 265.68 182.99 272.02 177.07 272.16C170.76 272.31 160.57 266.16 160.57 259.58V55.08L89.53 125.54C73.5 134.47 56.97 116.2 68.57 101.58L165.56 4.57003C172.07 -1.52997 181.07 -1.51997 187.58 4.57003L285.01 102.14C295.85 117.45 278.5 134.8 263.07 125.08L192.58 55.07L192.57 55.08Z" fill="white"/>
</g>
<path d="M192.57 55.08V259.58C192.57 265.68 182.99 272.02 177.07 272.16C170.76 272.31 160.57 266.16 160.57 259.58V55.08L89.53 125.54C73.5 134.47 56.97 116.2 68.57 101.58L165.56 4.57003C172.07 -1.52997 181.07 -1.51997 187.58 4.57003L285.01 102.14C295.85 117.45 278.5 134.8 263.07 125.08L192.58 55.07L192.57 55.08Z" fill="white"/>
</g>
<defs>
<clipPath id="clip0_681_122">
<rect width="353.13" height="353.45" fill="white"/>
</clipPath>
<clipPath id="clip1_681_122">
<rect width="353.13" height="353.45" fill="white"/>
</clipPath>
</defs>
</svg>
